<svg xmlns="http://www.w3.org/2000/svg" xmlns:xlink="http://www.w3.org/1999/xlink" width="514.284" height="680" viewBox="0 0 514.284 680">
  <defs>
    <linearGradient id="linear-gradient" x1="0.5" x2="0.5" y2="1" gradientUnits="objectBoundingBox">
      <stop offset="0" stop-color="#fbd4d4" stop-opacity="0.6"/>
      <stop offset="1" stop-color="#6e0808" stop-opacity="0.6"/>
    </linearGradient>
    <linearGradient id="linear-gradient-2" x1="0.869" y1="0.873" x2="0.131" y2="0.127" gradientUnits="objectBoundingBox">
      <stop offset="0" stop-color="#ab0d0d"/>
      <stop offset="0.749" stop-color="#d58177"/>
      <stop offset="1" stop-color="#fff6e2"/>
    </linearGradient>
    <linearGradient id="linear-gradient-3" x1="0.869" y1="0.873" x2="0.131" y2="0.127" xlink:href="#linear-gradient-2"/>
    <linearGradient id="linear-gradient-4" x1="0.869" y1="0.872" x2="0.13" y2="0.126" xlink:href="#linear-gradient-2"/>
    <linearGradient id="linear-gradient-5" x1="0.888" y1="0.826" x2="0.113" y2="0.174" xlink:href="#linear-gradient-2"/>
    <linearGradient id="linear-gradient-6" x1="0.888" y1="0.825" x2="0.112" y2="0.175" xlink:href="#linear-gradient-2"/>
    <linearGradient id="linear-gradient-7" x1="0.888" y1="0.826" x2="0.112" y2="0.174" xlink:href="#linear-gradient-2"/>
    <linearGradient id="linear-gradient-8" x1="0.888" y1="0.827" x2="0.112" y2="0.175" xlink:href="#linear-gradient-2"/>
    <linearGradient id="linear-gradient-9" x1="0.888" y1="0.826" x2="0.111" y2="0.174" xlink:href="#linear-gradient-2"/>
    <linearGradient id="linear-gradient-10" x1="0.888" y1="0.825" x2="0.111" y2="0.174" xlink:href="#linear-gradient-2"/>
    <linearGradient id="linear-gradient-11" x1="0.893" y1="0.814" x2="0.106" y2="0.185" xlink:href="#linear-gradient-2"/>
    <linearGradient id="linear-gradient-12" x1="0.948" y1="0.742" x2="0.053" y2="0.255" xlink:href="#linear-gradient-2"/>
    <linearGradient id="linear-gradient-13" x1="0.91" y1="0.785" x2="0.087" y2="0.215" xlink:href="#linear-gradient-2"/>
    <linearGradient id="linear-gradient-14" x1="0.903" y1="0.794" x2="0.094" y2="0.203" xlink:href="#linear-gradient-2"/>
    <linearGradient id="linear-gradient-15" x1="1.01" y1="0.701" x2="-0.015" y2="0.299" xlink:href="#linear-gradient-2"/>
    <linearGradient id="linear-gradient-16" x1="0.893" y1="0.814" x2="0.106" y2="0.188" xlink:href="#linear-gradient-2"/>
    <linearGradient id="linear-gradient-17" x1="0.948" y1="0.742" x2="0.053" y2="0.256" xlink:href="#linear-gradient-2"/>
    <linearGradient id="linear-gradient-18" x1="0.91" y1="0.786" x2="0.087" y2="0.216" xlink:href="#linear-gradient-2"/>
    <linearGradient id="linear-gradient-19" x1="0.903" y1="0.795" x2="0.094" y2="0.204" xlink:href="#linear-gradient-2"/>
    <linearGradient id="linear-gradient-20" x1="1.01" y1="0.699" x2="-0.015" y2="0.292" xlink:href="#linear-gradient-2"/>
    <linearGradient id="linear-gradient-21" x1="0.893" y1="0.814" x2="0.106" y2="0.185" xlink:href="#linear-gradient-2"/>
    <linearGradient id="linear-gradient-22" x1="0.948" y1="0.741" x2="0.053" y2="0.255" xlink:href="#linear-gradient-2"/>
    <linearGradient id="linear-gradient-23" x1="0.91" y1="0.784" x2="0.087" y2="0.215" xlink:href="#linear-gradient-2"/>
    <linearGradient id="linear-gradient-24" x1="0.903" y1="0.794" x2="0.094" y2="0.204" xlink:href="#linear-gradient-2"/>
    <linearGradient id="linear-gradient-25" x1="1.01" y1="0.709" x2="-0.015" y2="0.303" xlink:href="#linear-gradient-2"/>
    <linearGradient id="linear-gradient-26" x1="0.893" y1="0.814" x2="0.106" y2="0.188" xlink:href="#linear-gradient-2"/>
    <linearGradient id="linear-gradient-27" x1="0.869" y1="0.873" x2="0.131" y2="0.126" xlink:href="#linear-gradient-2"/>
    <linearGradient id="linear-gradient-28" x1="0.954" y1="0.737" x2="0.044" y2="0.261" xlink:href="#linear-gradient-2"/>
    <linearGradient id="linear-gradient-29" x1="0.963" y1="0.732" x2="0.04" y2="0.267" xlink:href="#linear-gradient-2"/>
    <linearGradient id="linear-gradient-30" x1="0.871" y1="0.875" x2="0.132" y2="0.127" xlink:href="#linear-gradient-2"/>
    <linearGradient id="linear-gradient-31" x1="0.868" y1="0.881" x2="0.135" y2="0.117" xlink:href="#linear-gradient-2"/>
    <linearGradient id="linear-gradient-32" x1="0.874" y1="0.87" x2="0.132" y2="0.134" xlink:href="#linear-gradient-2"/>
    <linearGradient id="linear-gradient-33" x1="0.868" y1="0.881" x2="0.133" y2="0.125" xlink:href="#linear-gradient-2"/>
    <linearGradient id="linear-gradient-34" x1="0.87" y1="0.881" x2="0.13" y2="0.125" xlink:href="#linear-gradient-2"/>
    <linearGradient id="linear-gradient-35" x1="0.869" y1="0.873" x2="0.131" y2="0.127" xlink:href="#linear-gradient-2"/>
    <linearGradient id="linear-gradient-36" x1="0.955" y1="0.738" x2="0.043" y2="0.262" xlink:href="#linear-gradient-2"/>
    <linearGradient id="linear-gradient-37" x1="0.961" y1="0.732" x2="0.038" y2="0.265" xlink:href="#linear-gradient-2"/>
    <linearGradient id="linear-gradient-38" x1="0.866" y1="0.879" x2="0.13" y2="0.126" xlink:href="#linear-gradient-2"/>
    <linearGradient id="linear-gradient-39" x1="0.869" y1="0.874" x2="0.132" y2="0.123" xlink:href="#linear-gradient-2"/>
    <linearGradient id="linear-gradient-40" x1="0.87" y1="0.861" x2="0.128" y2="0.137" xlink:href="#linear-gradient-2"/>
    <linearGradient id="linear-gradient-41" x1="0.87" y1="0.878" x2="0.133" y2="0.12" xlink:href="#linear-gradient-2"/>
    <linearGradient id="linear-gradient-42" x1="0.868" y1="0.872" x2="0.13" y2="0.122" xlink:href="#linear-gradient-2"/>
    <linearGradient id="linear-gradient-43" x1="0.869" y1="0.873" x2="0.131" y2="0.127" xlink:href="#linear-gradient-2"/>
    <linearGradient id="linear-gradient-44" x1="0.869" y1="0.873" x2="0.131" y2="0.128" xlink:href="#linear-gradient-2"/>
    <linearGradient id="linear-gradient-45" x1="0.887" y1="0.825" x2="0.111" y2="0.174" xlink:href="#linear-gradient-2"/>
    <linearGradient id="linear-gradient-46" x1="0.888" y1="0.824" x2="0.113" y2="0.174" xlink:href="#linear-gradient-2"/>
    <linearGradient id="linear-gradient-47" x1="0.888" y1="0.824" x2="0.112" y2="0.175" xlink:href="#linear-gradient-2"/>
    <linearGradient id="linear-gradient-48" x1="0.888" y1="0.827" x2="0.112" y2="0.175" xlink:href="#linear-gradient-2"/>
    <linearGradient id="linear-gradient-49" x1="0.893" y1="0.812" x2="0.107" y2="0.185" xlink:href="#linear-gradient-2"/>
    <linearGradient id="linear-gradient-50" x1="0.948" y1="0.739" x2="0.045" y2="0.254" xlink:href="#linear-gradient-2"/>
    <linearGradient id="linear-gradient-51" x1="0.911" y1="0.788" x2="0.089" y2="0.219" xlink:href="#linear-gradient-2"/>
    <linearGradient id="linear-gradient-52" x1="0.903" y1="0.794" x2="0.094" y2="0.202" xlink:href="#linear-gradient-2"/>
    <linearGradient id="linear-gradient-53" x1="1.008" y1="0.7" x2="-0.007" y2="0.3" xlink:href="#linear-gradient-2"/>
    <linearGradient id="linear-gradient-54" x1="0.893" y1="0.813" x2="0.107" y2="0.187" xlink:href="#linear-gradient-2"/>
    <linearGradient id="linear-gradient-55" x1="0.946" y1="0.746" x2="0.044" y2="0.261" xlink:href="#linear-gradient-2"/>
    <linearGradient id="linear-gradient-56" x1="0.911" y1="0.785" x2="0.089" y2="0.216" xlink:href="#linear-gradient-2"/>
    <linearGradient id="linear-gradient-57" x1="0.903" y1="0.799" x2="0.093" y2="0.207" xlink:href="#linear-gradient-2"/>
    <linearGradient id="linear-gradient-58" x1="1.008" y1="0.705" x2="-0.007" y2="0.299" xlink:href="#linear-gradient-2"/>
    <linearGradient id="linear-gradient-59" x1="0.893" y1="0.815" x2="0.107" y2="0.185" xlink:href="#linear-gradient-2"/>
    <linearGradient id="linear-gradient-60" x1="0.869" y1="0.873" x2="0.132" y2="0.125" xlink:href="#linear-gradient-2"/>
    <linearGradient id="linear-gradient-61" x1="1.008" y1="0.706" x2="-0.008" y2="0.294" xlink:href="#linear-gradient-2"/>
    <linearGradient id="linear-gradient-62" x1="1.005" y1="0.707" x2="-0.005" y2="0.293" xlink:href="#linear-gradient-2"/>
    <linearGradient id="linear-gradient-63" x1="0.869" y1="0.857" x2="0.148" y2="0.155" gradientUnits="objectBoundingBox">
      <stop offset="0" stop-color="#6318ff"/>
      <stop offset="1" stop-color="#fff6e2"/>
    </linearGradient>
    <linearGradient id="linear-gradient-64" x1="0.869" y1="0.873" x2="0.131" y2="0.127" xlink:href="#linear-gradient-2"/>
    <linearGradient id="linear-gradient-65" x1="0.869" y1="0.873" x2="0.131" y2="0.127" xlink:href="#linear-gradient-2"/>
    <linearGradient id="linear-gradient-66" x1="0.87" y1="0.872" x2="0.131" y2="0.127" xlink:href="#linear-gradient-2"/>
    <linearGradient id="linear-gradient-67" x1="0.869" y1="0.872" x2="0.131" y2="0.125" xlink:href="#linear-gradient-2"/>
    <linearGradient id="linear-gradient-68" x1="0.894" y1="0.814" x2="0.109" y2="0.185" xlink:href="#linear-gradient-2"/>
  </defs>
  <g id="about-NFTM-illustration" transform="translate(-3649.478 -1520)">
    <path id="XMLID_29_" d="M3928,1923.592h0c.282,9.771,6.211,18.976,18.211,26.057l197.5,114.847c27.1,15.719,74.256,13.878,105.595-4.249l167-96.3c17.364-10.054,26.116-22.941,25.834-35.12h0V1520h-514Z" transform="translate(-278.522)" fill-rule="evenodd" fill="url(#linear-gradient)"/>
    <path id="XMLID_13_" d="M4143.889,3773.888l-197.5-114.847c-26.963-15.719-23.576-43.05,7.764-61.176l167-96.3c31.2-18.126,78.49-19.967,105.454-4.249l197.638,114.847c26.964,15.719,23.576,43.05-7.764,61.176l-167,96.3C4218.285,3787.625,4170.993,3789.607,4143.889,3773.888Z" transform="translate(-278.703 -1689.691)" fill="#ab0d0d" fill-rule="evenodd"/>
    <g id="XMLID_3_" transform="translate(3649.478 1775.18)">
      <path id="XMLID_51_" d="M4442.283,3720,4442,3684.74l-34.445-.283L4226.434,3579.24c-26.964-15.719-74.256-13.878-105.455,4.107l-167,96.438a36.689,36.689,0,0,0-3.952,2.407L3928,3682.05V3714.9h0c.282,9.63,6.211,18.976,18.21,25.915l197.5,114.847c27.1,15.718,74.4,13.877,105.595-4.107l167-96.437c17.364-9.913,26.116-22.8,25.976-35.12Z" transform="translate(-3928 -3535.764)" fill="#6e0808" fill-rule="evenodd"/>
      <path id="XMLID_48_" d="M4144.03,3624.178l-197.638-114.847c-26.963-15.719-23.576-43.05,7.764-61.176l167-96.3c31.2-17.984,78.49-19.967,105.454-4.248l197.638,114.847c26.964,15.719,23.576,43.05-7.764,61.176l-167,96.3C4218.285,3638.056,4170.993,3639.9,4144.03,3624.178Z" transform="translate(-3928.181 -3336.989)" fill-rule="evenodd" fill="url(#linear-gradient-2)"/>
    </g>
    <g id="_7" transform="translate(3805.404 1626.951)">
      <g id="XMLID_2_" transform="translate(11.701)">
        <path id="XMLID_563_" d="M5254.492,2741.228V2558.691L5116.846,2556v181.4c-.566,1.558.142,3.115,1.982,4.107l62.45,36.96c3.258,1.983,8.922,1.841,12.745-.283l57.353-32.429C5253.643,2744.485,5254.775,2742.785,5254.492,2741.228Z" transform="translate(-5116.642 -2516.787)" fill="#6e0808" fill-rule="evenodd"/>
        <path id="XMLID_8_" d="M5181.2,2357.394l-62.45-36.819c-3.257-1.983-2.832-5.24.991-7.364l57.353-32.429c3.824-2.125,9.488-2.266,12.745-.283l62.451,36.961c3.257,1.841,2.832,5.1-.992,7.222l-57.353,32.429C5190.122,2359.235,5184.458,2359.376,5181.2,2357.394Z" transform="translate(-5116.563 -2279.096)" fill-rule="evenodd" fill="url(#linear-gradient-3)"/>
      </g>
      <path id="XMLID_569_" d="M5347.2,2431.5l-38.235-22.658c-1.982-1.133-1.7-3.115.566-4.39l35.119-19.825c2.408-1.274,5.807-1.416,7.79-.283L5390.815,2407c1.982,1.133,1.7,3.115-.567,4.531l-35.261,19.825C5352.722,2432.633,5349.181,2432.775,5347.2,2431.5Z" transform="translate(-5268.879 -2368.78)" fill-rule="evenodd" fill="url(#linear-gradient-4)"/>
      <g id="XMLID_590_" transform="translate(0.151 172.13)">
        <path id="XMLID_592_" d="M5108.15,3529.215c0-2.549-1.417-5.664-3.4-6.8l-46.59-27.473a2.586,2.586,0,0,0-2.266-.141h0c-.142,0-.142.141-.284.141L5044,3501.885l50.838,37.244,11.612-6.939a3.084,3.084,0,0,0,.708-.425h0A3.514,3.514,0,0,0,5108.15,3529.215Z" transform="translate(-5042.726 -3494.606)" fill-rule="evenodd" fill="url(#linear-gradient-5)"/>
        <path id="XMLID_591_" d="M5084.989,3581.157l-46.59-27.473c-1.841-1.133-3.4-4.249-3.4-6.8h0c.142-2.549,1.7-3.682,3.683-2.549l46.448,27.473c1.983,1.133,3.541,4.249,3.541,6.8h0C5088.529,3581.157,5086.971,3582.29,5084.989,3581.157Z" transform="translate(-5035 -3536.919)" fill="#c4524c" fill-rule="evenodd"/>
      </g>
      <g id="XMLID_587_" transform="translate(0 151.608)">
        <path id="XMLID_589_" d="M5107.15,3384.426c0-2.691-1.558-5.665-3.4-6.8l-46.59-27.473a2.275,2.275,0,0,0-2.267-.283h0l-.283.283-11.612,6.8,50.7,37.385,11.754-7.08a.779.779,0,0,0,.708-.425h0A2.954,2.954,0,0,0,5107.15,3384.426Z" transform="translate(-5041.717 -3349.687)" fill-rule="evenodd" fill="url(#linear-gradient-6)"/>
        <path id="XMLID_588_" d="M5083.935,3437.015l-46.59-27.331a8.257,8.257,0,0,1-3.4-6.8h0c0-2.549,1.7-3.682,3.682-2.549l46.449,27.472a7.812,7.812,0,0,1,3.4,6.656h0C5087.475,3437.015,5085.776,3438.29,5083.935,3437.015Z" transform="translate(-5033.937 -3392.789)" fill="#c4524c" fill-rule="evenodd"/>
      </g>
      <g id="XMLID_584_" transform="translate(0.142 131.216)">
        <path id="XMLID_586_" d="M5108.15,3240.284a8.568,8.568,0,0,0-3.4-6.655l-46.59-27.473a2.273,2.273,0,0,0-2.266-.283h0a.5.5,0,0,0-.284.142L5044,3212.953l50.7,37.244,11.753-6.939c.283-.142.424-.283.708-.425h0A3.514,3.514,0,0,0,5108.15,3240.284Z" transform="translate(-5042.717 -3205.687)" fill-rule="evenodd" fill="url(#linear-gradient-7)"/>
        <path id="XMLID_585_" d="M5084.793,3292.157l-46.449-27.473a7.887,7.887,0,0,1-3.4-6.8h0c0-2.549,1.7-3.682,3.682-2.549l46.449,27.472a8.068,8.068,0,0,1,3.4,6.8h0C5088.475,3292.157,5086.776,3293.29,5084.793,3292.157Z" transform="translate(-5034.938 -3247.93)" fill="#c4524c" fill-rule="evenodd"/>
      </g>
      <g id="XMLID_581_" transform="translate(0.009 110.682)">
        <path id="XMLID_583_" d="M5108.008,3095.284a7.81,7.81,0,0,0-3.4-6.655l-46.448-27.473a2.512,2.512,0,0,0-2.408-.283h0c0,.142-.142.142-.283.283l-11.471,6.8,50.7,37.244,11.753-6.939c.142,0,.424-.283.708-.425h0A3.055,3.055,0,0,0,5108.008,3095.284Z" transform="translate(-5042.584 -3060.687)" fill-rule="evenodd" fill="url(#linear-gradient-8)"/>
        <path id="XMLID_582_" d="M5083.989,3147.507l-46.448-27.472a8.29,8.29,0,0,1-3.541-6.656h0c.142-2.691,1.7-3.823,3.682-2.549l46.59,27.331a9.092,9.092,0,0,1,3.4,6.8h0C5087.529,3147.507,5085.971,3148.64,5083.989,3147.507Z" transform="translate(-5034 -3103.28)" fill="#c4524c" fill-rule="evenodd"/>
      </g>
      <g id="XMLID_571_" transform="translate(0.151 90.279)">
        <path id="XMLID_574_" d="M5109.008,2951.215a8.257,8.257,0,0,0-3.4-6.8l-46.448-27.473a2.913,2.913,0,0,0-2.408-.142h0a.494.494,0,0,1-.283.142L5045,2923.885l50.7,37.244,11.754-6.939a3.08,3.08,0,0,1,.708-.425h0A4.2,4.2,0,0,0,5109.008,2951.215Z" transform="translate(-5043.584 -2916.606)" fill-rule="evenodd" fill="url(#linear-gradient-9)"/>
        <path id="XMLID_572_" d="M5084.989,3003.157l-46.449-27.473c-1.982-1.133-3.541-4.249-3.541-6.8h0c.142-2.549,1.7-3.682,3.683-2.549l46.59,27.472c1.841,1.133,3.4,4.249,3.4,6.8h0C5088.529,3003.157,5086.971,3004.29,5084.989,3003.157Z" transform="translate(-5035 -2958.919)" fill="#c4524c" fill-rule="evenodd"/>
      </g>
      <g id="XMLID_568_" transform="translate(0.151 69.781)">
        <path id="XMLID_573_" d="M5109.008,2806.576a7.89,7.89,0,0,0-3.4-6.8l-46.448-27.473a2.156,2.156,0,0,0-2.408-.141h0a.437.437,0,0,0-.283.141L5045,2779.1l50.7,37.385,11.754-7.081a1.3,1.3,0,0,0,.708-.425h0A3.458,3.458,0,0,0,5109.008,2806.576Z" transform="translate(-5043.584 -2771.862)" fill-rule="evenodd" fill="url(#linear-gradient-10)"/>
        <path id="XMLID_570_" d="M5084.989,2859.016l-46.449-27.331a8.78,8.78,0,0,1-3.541-6.8h0c.142-2.549,1.7-3.682,3.683-2.549l46.59,27.472a8.568,8.568,0,0,1,3.4,6.656h0C5088.529,2859.016,5086.971,2860.29,5084.989,2859.016Z" transform="translate(-5035 -2814.813)" fill="#c4524c" fill-rule="evenodd"/>
      </g>
      <path id="XMLID_594_" d="M5308.964,2409.116l6.373,3.823,29.313-16.568a8.454,8.454,0,0,1,7.79-.283l32,18.834,5.664-3.257c2.408-1.274,2.69-3.257.708-4.39l-38.376-22.658c-1.983-1.274-5.381-1.133-7.79.142l-35.119,19.826C5307.264,2406,5306.981,2407.983,5308.964,2409.116Z" transform="translate(-5268.879 -2368.912)" fill="#6e0808" fill-rule="evenodd"/>
      <g id="XMLID_615_" transform="translate(96.163 72.775)">
        <g id="XMLID_602_">
          <path id="XMLID_578_" d="M5756.617,2799.8,5713,2824.863v-6.8L5756.617,2793Z" transform="translate(-5713 -2793)" fill-rule="evenodd" fill="url(#linear-gradient-11)"/>
          <path id="XMLID_579_" d="M5939.453,2891.8,5926,2899.444v-6.8l13.453-7.647Z" transform="translate(-5895.837 -2871.972)" fill-rule="evenodd" fill="url(#linear-gradient-12)"/>
          <path id="XMLID_580_" d="M5738.208,2966.8,5713,2981.242v-6.8L5738.208,2960Z" transform="translate(-5713 -2936.351)" fill-rule="evenodd" fill="url(#linear-gradient-13)"/>
          <path id="XMLID_595_" d="M5833.013,2979.8,5802,2997.782v-6.8L5833.013,2973Z" transform="translate(-5789.396 -2947.51)" fill-rule="evenodd" fill="url(#linear-gradient-14)"/>
          <path id="XMLID_593_" d="M5720.505,3126.8l-7.5,4.39v-6.8l7.5-4.39Z" transform="translate(-5713 -3073.693)" fill-rule="evenodd" fill="url(#linear-gradient-15)"/>
          <path id="XMLID_596_" d="M5756.617,3071.8,5713,3097v-6.8L5756.617,3065Z" transform="translate(-5713 -3026.481)" fill-rule="evenodd" fill="url(#linear-gradient-16)"/>
          <path id="XMLID_600_" d="M5939.453,3164.8,5926,3172.445v-6.8l13.453-7.647Z" transform="translate(-5895.837 -3106.312)" fill-rule="evenodd" fill="url(#linear-gradient-17)"/>
          <path id="XMLID_599_" d="M5738.208,3239.8,5713,3254.242v-6.8L5738.208,3233Z" transform="translate(-5713 -3170.691)" fill-rule="evenodd" fill="url(#linear-gradient-18)"/>
          <path id="XMLID_598_" d="M5833.013,3252.8,5802,3270.782v-6.8L5833.013,3246Z" transform="translate(-5789.396 -3181.85)" fill-rule="evenodd" fill="url(#linear-gradient-19)"/>
          <path id="XMLID_597_" d="M5720.505,3400.656l-7.5,4.39v-6.8l7.5-4.249Z" transform="translate(-5713 -3308.891)" fill-rule="evenodd" fill="url(#linear-gradient-20)"/>
          <path id="XMLID_601_" d="M5756.617,3340.8,5713,3365.863v-6.8L5756.617,3334Z" transform="translate(-5713 -3257.388)" fill-rule="evenodd" fill="url(#linear-gradient-21)"/>
        </g>
        <path id="XMLID_625_" d="M5939.453,3432.656,5926,3440.445v-6.8l13.453-7.647Z" transform="translate(-5895.837 -3336.36)" fill-rule="evenodd" fill="url(#linear-gradient-22)"/>
        <path id="XMLID_624_" d="M5738.208,3507.8,5713,3522.242v-6.8L5738.208,3501Z" transform="translate(-5713 -3400.739)" fill-rule="evenodd" fill="url(#linear-gradient-23)"/>
        <path id="XMLID_623_" d="M5833.013,3520.8,5802,3538.782v-6.8L5833.013,3514Z" transform="translate(-5789.396 -3411.898)" fill-rule="evenodd" fill="url(#linear-gradient-24)"/>
        <path id="XMLID_622_" d="M5720.505,3667.8l-7.5,4.249v-6.656l7.5-4.39Z" transform="translate(-5713 -3538.081)" fill-rule="evenodd" fill="url(#linear-gradient-25)"/>
        <path id="XMLID_621_" d="M5756.617,3612.8,5713,3638v-6.8L5756.617,3606Z" transform="translate(-5713 -3490.87)" fill-rule="evenodd" fill="url(#linear-gradient-26)"/>
      </g>
    </g>
    <g id="_6" transform="translate(3700.781 1801.48)">
      <g id="XMLID_1232_" transform="translate(0 0)">
        <path id="XMLID_1234_" d="M4372.657,3778.146v-95.587L4290.381,3681v94.879a2.151,2.151,0,0,0,1.133,2.549l37.386,22.092a8.588,8.588,0,0,0,7.646-.283l34.271-19.4C4372.233,3780.128,4372.8,3779.137,4372.657,3778.146Z" transform="translate(-4290.279 -3657.574)" fill="#c4524c" fill-rule="evenodd"/>
        <path id="XMLID_1233_" d="M4328.986,3562.367l-37.385-22.091c-1.841-1.133-1.558-3.115.566-4.39l34.412-19.259a8.587,8.587,0,0,1,7.647-.284l37.244,22.092c1.982,1.132,1.7,3.115-.566,4.39l-34.271,19.4C4334.367,3563.359,4330.969,3563.5,4328.986,3562.367Z" transform="translate(-4290.365 -3515.576)" fill-rule="evenodd" fill="url(#linear-gradient-27)"/>
      </g>
      <g id="XMLID_1100_" transform="translate(55.897 60.103)">
        <path id="XMLID_1256_" d="M4735.037,4442.02,4723,4435.081V4428l12.037,6.939Z" transform="translate(-4717.619 -4358.894)" fill="#6e0808" fill-rule="evenodd"/>
        <path id="XMLID_1255_" d="M4819.612,4436.222,4808,4429.708l11.612-.708Z" transform="translate(-4790.582 -4359.751)" fill="#6e0808" fill-rule="evenodd"/>
        <path id="XMLID_1254_" d="M4825,4250.347v13.878l12.745-4.39,8.072-12.887-7.364-5.948Z" transform="translate(-4805.175 -4198.375)" fill-rule="evenodd" fill="url(#linear-gradient-28)"/>
        <path id="XMLID_1253_" d="M4825,4109.5v12.037l15.294-6.939,2.408-11.754-7.364-1.841Z" transform="translate(-4805.175 -4078.201)" fill-rule="evenodd" fill="url(#linear-gradient-29)"/>
        <path id="XMLID_1252_" d="M4685,4064.257l5.382-3.257,12.037,6.8-5.382,3.257Z" transform="translate(-4685 -4043.865)" fill-rule="evenodd" fill="url(#linear-gradient-30)"/>
        <path id="XMLID_1251_" d="M4782.7,4021.8l-12.037-6.8-5.665,3.115,12.037,6.8Z" transform="translate(-4753.671 -4004.379)" fill-rule="evenodd" fill="url(#linear-gradient-31)"/>
        <path id="XMLID_1250_" d="M4865.152,4002.514l-11.47-6.514-3.682,3.823,12.462,5.1Z" transform="translate(-4826.634 -3988.07)" fill-rule="evenodd" fill="url(#linear-gradient-32)"/>
        <path id="XMLID_1249_" d="M4723.141,4011l11.9,6.8v7.081l-12.037-6.8Z" transform="translate(-4717.619 -4000.946)" fill="#6e0808" fill-rule="evenodd"/>
        <path id="XMLID_1248_" d="M4805,3964l12.037,6.8v7.222l-12.037-6.8Z" transform="translate(-4788.007 -3960.602)" fill="#6e0808" fill-rule="evenodd"/>
        <path id="XMLID_1247_" d="M4810.948,3940l12.037,6.8-5.948,3.4L4805,3943.4Z" transform="translate(-4788.007 -3940)" fill-rule="evenodd" fill="url(#linear-gradient-33)"/>
        <path id="XMLID_1246_" d="M4729.806,3987l12.037,6.8-5.947,3.4-11.9-6.8Z" transform="translate(-4718.477 -3980.344)" fill-rule="evenodd" fill="url(#linear-gradient-34)"/>
        <g id="XMLID_1102_" transform="translate(12.037 6.797)">
          <path id="XMLID_1103_" d="M4786.994,4057.673v-7.223c-1.133.708-2.408,1.416-3.824,2.266l-1.84.991v7.081l-5.948,3.54v-7.222l-5.381,3.257v-51.971l5.381-3.257v-7.081l5.948-3.4v7.081l4.248-2.408a6.621,6.621,0,0,1,1.417-.708V3991.4l5.947-3.4v7.789a5.059,5.059,0,0,1,3.54,0,4.907,4.907,0,0,1,3.116,2.549,11.686,11.686,0,0,1,1.132,5.381,20.952,20.952,0,0,1-1.558,7.505,22.206,22.206,0,0,1-3.964,6.939c2.407-.425,4.248,0,5.522,1.558,1.274,1.416,1.841,3.682,1.841,6.656a30.333,30.333,0,0,1-1.132,7.647,31.8,31.8,0,0,1-3.4,7.364,23.016,23.016,0,0,1-5.1,5.381v7.364Zm-9.2-24.5v13.878l7.363-4.248a37.3,37.3,0,0,0,5.381-3.4,10.66,10.66,0,0,0,2.832-3.682,12.216,12.216,0,0,0,1.133-5.1,5.442,5.442,0,0,0-.85-3.4,2.416,2.416,0,0,0-2.549-.991c-.991.142-3.4,1.133-6.938,3.257Zm0-20.675v12.037l5.239-2.974c2.974-1.841,4.956-2.974,5.665-3.54a11.542,11.542,0,0,0,3.256-3.682,10.346,10.346,0,0,0,1.133-4.673c0-1.7-.284-2.833-.991-3.4a2.732,2.732,0,0,0-2.974-.141c-.85.424-2.974,1.557-6.8,3.682Z" transform="translate(-4770 -3988)" fill="#c4524c" fill-rule="evenodd"/>
        </g>
        <path id="XMLID_1101_" d="M4685,4084l12.037,6.8-.142,51.971-11.9-6.8Z" transform="translate(-4685 -4063.608)" fill="#6e0808" fill-rule="evenodd"/>
      </g>
      <g id="XMLID_1508_" transform="translate(4.634 40.167)">
        <path id="XMLID_1493_" d="M4329.231,3813.2l-5.523-3.116a2.3,2.3,0,0,1-.708-1.274v-8.921c0-.566.425-.85.708-.566l5.523,3.257a1.328,1.328,0,0,1,.708,1.275v8.921C4329.939,3813.2,4329.656,3813.488,4329.231,3813.2Z" transform="translate(-4323 -3799.216)" fill="#f5e9e6" fill-rule="evenodd"/>
        <path id="XMLID_1494_" d="M4399.231,3853.71l-5.522-3.257a1.328,1.328,0,0,1-.708-1.274v-8.921c0-.566.284-.708.708-.566l5.522,3.257a1.488,1.488,0,0,1,.708,1.274v8.921C4399.939,3853.71,4399.655,3853.852,4399.231,3853.71Z" transform="translate(-4383.087 -3833.916)" fill="#f5e9e6" fill-rule="evenodd"/>
        <path id="XMLID_1495_" d="M4469.231,3894.187l-5.523-3.115a1.69,1.69,0,0,1-.708-1.274v-9.063c0-.425.283-.708.708-.425l5.523,3.116a2.267,2.267,0,0,1,.708,1.416v8.921C4469.939,3894.187,4469.514,3894.47,4469.231,3894.187Z" transform="translate(-4443.175 -3868.728)" fill="#f5e9e6" fill-rule="evenodd"/>
        <path id="XMLID_1498_" d="M4329.231,3913.187l-5.523-3.115a2.264,2.264,0,0,1-.708-1.417v-8.921c0-.425.425-.708.708-.425l5.523,3.116a1.689,1.689,0,0,1,.708,1.274v8.922C4329.939,3913.187,4329.656,3913.47,4329.231,3913.187Z" transform="translate(-4323 -3885.037)" fill="#f5e9e6" fill-rule="evenodd"/>
        <path id="XMLID_1497_" d="M4399.231,3953.346l-5.522-3.257a1.69,1.69,0,0,1-.708-1.274v-8.921c0-.567.284-.85.708-.567l5.522,3.257a1.328,1.328,0,0,1,.708,1.274v8.922C4399.939,3953.2,4399.655,3953.488,4399.231,3953.346Z" transform="translate(-4383.087 -3919.39)" fill="#f5e9e6" fill-rule="evenodd"/>
        <path id="XMLID_1496_" d="M4469.231,3993.8l-5.523-3.257a1.327,1.327,0,0,1-.708-1.274v-8.921c0-.425.283-.708.708-.566l5.523,3.257a2.306,2.306,0,0,1,.708,1.274v8.921C4469.939,3993.8,4469.514,3993.938,4469.231,3993.8Z" transform="translate(-4443.175 -3954.176)" fill="#f5e9e6" fill-rule="evenodd"/>
        <path id="XMLID_1500_" d="M4399.231,4053.187l-5.522-3.116a1.69,1.69,0,0,1-.708-1.274v-9.063c0-.425.284-.708.708-.425l5.522,3.115a1.691,1.691,0,0,1,.708,1.274v9.063C4399.939,4053.187,4399.655,4053.47,4399.231,4053.187Z" transform="translate(-4383.087 -4005.211)" fill="#f5e9e6" fill-rule="evenodd"/>
        <path id="XMLID_1507_" d="M4329.231,4112.187l-5.523-3.115a2.3,2.3,0,0,1-.708-1.275v-9.063c0-.424.425-.707.708-.424l5.523,3.115a1.744,1.744,0,0,1,.708,1.417v8.921C4329.939,4112.187,4329.656,4112.47,4329.231,4112.187Z" transform="translate(-4323 -4055.856)" fill="#f5e9e6" fill-rule="evenodd"/>
        <path id="XMLID_1502_" d="M4469.231,4292.71l-5.523-3.257a1.329,1.329,0,0,1-.708-1.275v-8.921c0-.566.283-.708.708-.566l5.523,3.257a1.91,1.91,0,0,1,.708,1.275v8.921C4469.939,4292.71,4469.514,4292.852,4469.231,4292.71Z" transform="translate(-4443.175 -4210.747)" fill="#f5e9e6" fill-rule="evenodd"/>
      </g>
    </g>
    <g id="_5_1_" transform="translate(3998.307 1732.602)">
      <g id="XMLID_1238_">
        <path id="XMLID_1240_" d="M6485.3,3346.79V3194.7l-82.276-1.7v151.524c-.424.992,0,1.841,1.133,2.549l37.386,22.092a8.59,8.59,0,0,0,7.647-.284l34.27-19.259C6484.73,3348.773,6485.438,3347.781,6485.3,3346.79Z" transform="translate(-6402.828 -3169.651)" fill="#c4524c" fill-rule="evenodd"/>
        <path id="XMLID_1239_" d="M6441.35,3074.976l-37.386-22.091c-1.982-1.133-1.7-3.115.565-4.39l34.412-19.4a8.266,8.266,0,0,1,7.506-.142l37.386,22.091c1.982,1.133,1.7,3.115-.567,4.39L6449,3074.692C6446.73,3075.967,6443.19,3076.109,6441.35,3074.976Z" transform="translate(-6402.638 -3028.119)" fill-rule="evenodd" fill="url(#linear-gradient-35)"/>
      </g>
      <g id="XMLID_1090_" transform="translate(59.528 95.996)">
        <path id="XMLID_1104_" d="M6893.71,4404.4l-16.71-9.488V4385l16.71,9.488Z" transform="translate(-6869.354 -4288.846)" fill="#6e0808" fill-rule="evenodd"/>
        <path id="XMLID_1106_" d="M7011.145,4395.913,6995,4386.991l16.145-.991Z" transform="translate(-6970.643 -4289.704)" fill="#6e0808" fill-rule="evenodd"/>
        <path id="XMLID_1107_" d="M7019,4137.029v19.259l17.844-6.089,11.046-17.844-10.2-8.354Z" transform="translate(-6991.244 -4064.807)" fill-rule="evenodd" fill="url(#linear-gradient-36)"/>
        <path id="XMLID_1108_" d="M7019,3941.754v16.71l21.242-9.488,3.4-16.568-10.2-2.408Z" transform="translate(-6991.244 -3898.279)" fill-rule="evenodd" fill="url(#linear-gradient-37)"/>
        <path id="XMLID_1105_" d="M6824,3878.39l7.647-4.39,16.71,9.488-7.647,4.39Z" transform="translate(-6823.858 -3850.209)" fill-rule="evenodd" fill="url(#linear-gradient-38)"/>
        <path id="XMLID_1111_" d="M6960.5,3818.488l-16.71-9.488-7.789,4.532,16.71,9.488Z" transform="translate(-6919.998 -3794.414)" fill-rule="evenodd" fill="url(#linear-gradient-39)"/>
        <path id="XMLID_1242_" d="M7075.1,3792.205l-16-9.205-5.1,5.381,17.135,7.222Z" transform="translate(-7021.288 -3772.096)" fill-rule="evenodd" fill="url(#linear-gradient-40)"/>
        <path id="XMLID_1109_" d="M6878,3805l16.71,9.488v9.771l-16.71-9.488Z" transform="translate(-6870.211 -3790.981)" fill="#6e0808" fill-rule="evenodd"/>
        <path id="XMLID_1112_" d="M6991,3739l16.71,9.488v9.913l-16.71-9.488Z" transform="translate(-6967.209 -3734.327)" fill="#6e0808" fill-rule="evenodd"/>
        <path id="XMLID_1241_" d="M6999.214,3706l16.71,9.488-8.214,4.673-16.71-9.488Z" transform="translate(-6967.209 -3706)" fill-rule="evenodd" fill="url(#linear-gradient-41)"/>
        <path id="XMLID_1110_" d="M6886.214,3771l16.71,9.488-8.214,4.814-16.71-9.488Z" transform="translate(-6870.211 -3761.795)" fill-rule="evenodd" fill="url(#linear-gradient-42)"/>
        <g id="XMLID_1092_" transform="translate(16.852 9.488)">
          <path id="XMLID_1096_" d="M6965.649,3869.72v-9.913c-1.558.991-3.4,1.982-5.239,3.115l-2.549,1.417v9.913l-8.355,4.814v-9.913l-7.5,4.39v-72.363l7.646-4.39v-9.771l8.214-4.815v9.913l5.806-3.4c.708-.425,1.416-.708,1.982-1.133v-9.913l8.214-4.673v10.762a9,9,0,0,1,5.1-.142,7.78,7.78,0,0,1,4.105,3.682,14.36,14.36,0,0,1,1.7,7.505,28.844,28.844,0,0,1-2.124,10.479,34.142,34.142,0,0,1-5.523,9.63q4.885-1.062,7.647,2.124,2.549,2.974,2.549,9.347a37.6,37.6,0,0,1-1.7,10.621,41.778,41.778,0,0,1-4.674,10.2,32.323,32.323,0,0,1-7.08,7.505v10.337Zm-12.745-33.987v19.259l10.2-5.806a65.7,65.7,0,0,0,7.506-4.815,14.526,14.526,0,0,0,3.965-5.1,16.732,16.732,0,0,0,1.558-7.081,7.526,7.526,0,0,0-1.274-4.814,3.279,3.279,0,0,0-3.4-1.416c-1.416.283-4.674,1.7-9.771,4.673Zm0-28.747v16.71l7.223-4.106c4.248-2.549,6.939-4.107,7.931-4.957a12.813,12.813,0,0,0,4.39-5.1,13.155,13.155,0,0,0,1.7-6.514c0-2.266-.565-3.823-1.415-4.673-.991-.85-2.267-.991-4.106-.141a98.98,98.98,0,0,0-9.347,5.1Z" transform="translate(-6942 -3773)" fill="#c4524c" fill-rule="evenodd"/>
        </g>
        <path id="XMLID_1095_" d="M6823.142,3905l16.71,9.488v72.363L6823,3977.363Z" transform="translate(-6823 -3876.819)" fill="#6e0808" fill-rule="evenodd"/>
      </g>
      <g id="XMLID_1525_" transform="translate(4.583 41.849)">
        <g id="XMLID_1501_">
          <g id="XMLID_1499_">
            <path id="XMLID_1512_" d="M6441.231,3337.71l-5.523-3.257a1.328,1.328,0,0,1-.708-1.275v-8.921c0-.567.283-.708.708-.567l5.523,3.257a1.328,1.328,0,0,1,.707,1.274v8.921C6441.938,3337.71,6441.655,3337.852,6441.231,3337.71Z" transform="translate(-6435 -3323.639)" fill="#f5e9e6" fill-rule="evenodd"/>
            <path id="XMLID_1511_" d="M6511.231,3378.187l-5.522-3.115a1.744,1.744,0,0,1-.708-1.417v-8.921c0-.425.284-.708.708-.425l5.522,3.116a2.3,2.3,0,0,1,.708,1.274v9.063C6511.939,3378.187,6511.515,3378.47,6511.231,3378.187Z" transform="translate(-6495.087 -3358.451)" fill="#f5e9e6" fill-rule="evenodd"/>
            <path id="XMLID_1510_" d="M6581.231,3418.71l-5.523-3.257a1.488,1.488,0,0,1-.708-1.275v-8.922c0-.566.284-.708.708-.566l5.523,3.257a1.556,1.556,0,0,1,.566,1.275v8.921C6581.8,3418.71,6581.514,3418.852,6581.231,3418.71Z" transform="translate(-6555.175 -3393.169)" fill="#f5e9e6" fill-rule="evenodd"/>
            <path id="XMLID_1509_" d="M6441.231,3437.2l-5.523-3.115a1.69,1.69,0,0,1-.708-1.275v-8.922c0-.566.283-.85.708-.566l5.523,3.257a1.328,1.328,0,0,1,.707,1.275v8.921C6441.938,3437.2,6441.655,3437.488,6441.231,3437.2Z" transform="translate(-6435 -3409.114)" fill="#f5e9e6" fill-rule="evenodd"/>
            <path id="XMLID_1506_" d="M6511.231,3477.71l-5.522-3.257a1.329,1.329,0,0,1-.708-1.275v-8.921c0-.566.284-.708.708-.566l5.522,3.257a1.9,1.9,0,0,1,.708,1.274v8.922C6511.939,3477.71,6511.515,3477.852,6511.231,3477.71Z" transform="translate(-6495.087 -3443.814)" fill="#f5e9e6" fill-rule="evenodd"/>
            <path id="XMLID_1505_" d="M6581.231,3518.187l-5.523-3.115a1.691,1.691,0,0,1-.708-1.275v-9.062c0-.425.284-.708.708-.425l5.523,3.116a2.111,2.111,0,0,1,.566,1.274v9.063C6581.8,3518.187,6581.514,3518.47,6581.231,3518.187Z" transform="translate(-6555.175 -3478.626)" fill="#f5e9e6" fill-rule="evenodd"/>
          </g>
          <path id="XMLID_1504_" d="M6511.231,3577.346l-5.522-3.257a1.69,1.69,0,0,1-.708-1.274v-8.921c0-.566.284-.85.708-.566l5.522,3.257a1.625,1.625,0,0,1,.708,1.275v8.921C6511.939,3577.2,6511.515,3577.488,6511.231,3577.346Z" transform="translate(-6495.087 -3529.289)" fill="#f5e9e6" fill-rule="evenodd"/>
        </g>
        <g id="XMLID_1517_" transform="translate(19.826 53.752)">
          <g id="XMLID_1521_">
            <path id="XMLID_1522_" d="M6581.231,3717.2l-5.523-3.115a1.691,1.691,0,0,1-.708-1.274v-8.921c0-.566.284-.85.708-.566l5.523,3.257a1.556,1.556,0,0,1,.566,1.274v8.921C6581.8,3717.2,6581.514,3717.488,6581.231,3717.2Z" transform="translate(-6575 -3703.216)" fill="#f5e9e6" fill-rule="evenodd"/>
          </g>
        </g>
        <g id="XMLID_1528_" transform="translate(0 70.537)">
          <g id="XMLID_1532_">
            <path id="XMLID_1535_" d="M6441.231,3835.8l-5.523-3.257a1.329,1.329,0,0,1-.708-1.275v-8.921c0-.425.283-.708.708-.566l5.523,3.257a1.489,1.489,0,0,1,.707,1.274v8.921C6441.938,3835.8,6441.655,3835.938,6441.231,3835.8Z" transform="translate(-6435 -3821.74)" fill="#f5e9e6" fill-rule="evenodd"/>
          </g>
        </g>
      </g>
    </g>
    <path id="XMLID_67_" d="M4563.865,5728.074l-44.183-25.632c-5.947-3.54-5.239-9.629,1.841-13.595l37.244-21.383c6.939-4.107,17.56-4.531,23.508-.991l44.183,25.49c6.09,3.54,5.24,9.629-1.7,13.736l-37.385,21.383C4580.434,5731.048,4569.954,5731.473,4563.865,5728.074Z" transform="translate(-783.305 -3559.354)" fill="#ab0d0d" fill-rule="evenodd"/>
    <g id="XMLID_575_" transform="translate(3720.567 1986.975)">
      <g id="XMLID_658_" transform="translate(10.012 0)">
        <path id="XMLID_660_" d="M4619.56,5190.653V5072.408L4501.173,5070v117.4c-.425,1.275.141,2.549,1.7,3.541l53.671,31.721c2.832,1.7,7.647,1.558,10.9-.283l49.423-27.756C4618.71,5193.485,4619.7,5192.07,4619.56,5190.653Z" transform="translate(-4500.989 -5036.381)" fill="#6e0808" fill-rule="evenodd"/>
        <path id="XMLID_659_" d="M4556.254,4899.914l-53.67-31.72c-2.833-1.7-2.408-4.532.85-6.372l49.28-27.756c3.256-1.841,8.213-1.982,10.9-.283l53.812,31.721c2.69,1.7,2.407,4.39-.85,6.231l-49.423,27.9C4563.9,4901.331,4559.086,4901.614,4556.254,4899.914Z" transform="translate(-4500.699 -4832.592)" fill-rule="evenodd" fill="url(#linear-gradient-43)"/>
      </g>
      <path id="XMLID_657_" d="M4698.805,4963.1l-32.854-19.4c-1.7-.991-1.557-2.69.567-3.823l30.163-17.135a7.368,7.368,0,0,1,6.656-.141l33,19.4c1.7.991,1.416,2.833-.567,3.966l-30.305,16.993A7.366,7.366,0,0,1,4698.805,4963.1Z" transform="translate(-4631.54 -4909.227)" fill-rule="evenodd" fill="url(#linear-gradient-44)"/>
      <g id="XMLID_648_" transform="translate(0.132 112.725)">
        <path id="XMLID_650_" d="M4494.087,5658.4a7.155,7.155,0,0,0-2.974-5.806l-39.934-23.649a2.018,2.018,0,0,0-1.982-.142h0c-.142,0-.284,0-.284.142l-9.913,5.947,43.616,32,10.054-5.947c.142-.142.425-.284.567-.425h0A3.714,3.714,0,0,0,4494.087,5658.4Z" transform="translate(-4437.857 -5628.606)" fill-rule="evenodd" fill="url(#linear-gradient-45)"/>
        <path id="XMLID_649_" d="M4473.849,5703.239l-39.934-23.649a6.8,6.8,0,0,1-2.974-5.806h0c0-2.124,1.416-3.115,3.115-2.124l39.935,23.649a7.093,7.093,0,0,1,2.973,5.665h0C4476.823,5703.239,4475.407,5704.23,4473.849,5703.239Z" transform="translate(-4430.931 -5665.231)" fill="#c4524c" fill-rule="evenodd"/>
      </g>
      <g id="XMLID_645_" transform="translate(0 95.106)">
        <path id="XMLID_647_" d="M4493.087,5533.9c0-2.125-1.274-4.815-2.974-5.806l-39.935-23.508a1.724,1.724,0,0,0-1.983-.141h0c-.141,0-.141,0-.283.141l-9.913,5.807,43.616,32.146,10.054-6.089a.736.736,0,0,0,.567-.283h0A2.787,2.787,0,0,0,4493.087,5533.9Z" transform="translate(-4436.867 -5504.188)" fill-rule="evenodd" fill="url(#linear-gradient-46)"/>
        <path id="XMLID_646_" d="M4472.908,5578.726l-39.935-23.648a7.16,7.16,0,0,1-2.974-5.806h0c.142-2.267,1.558-3.257,3.116-2.124l40.076,23.507a7.044,7.044,0,0,1,2.832,5.807h0C4476.023,5578.726,4474.607,5579.718,4472.908,5578.726Z" transform="translate(-4430 -5540.66)" fill="#c4524c" fill-rule="evenodd"/>
      </g>
      <g id="XMLID_642_" transform="translate(0.142 77.514)">
        <path id="XMLID_644_" d="M4494.087,5409.7c0-2.124-1.274-4.814-2.974-5.806l-39.934-23.508a2.078,2.078,0,0,0-1.982-.283h0l-.284.283L4439,5386.2l43.616,32.146,10.054-6.09a.736.736,0,0,0,.567-.283h0A2.79,2.79,0,0,0,4494.087,5409.7Z" transform="translate(-4437.867 -5379.96)" fill-rule="evenodd" fill="url(#linear-gradient-47)"/>
        <path id="XMLID_643_" d="M4473.908,5454.726l-39.935-23.649a7.159,7.159,0,0,1-2.974-5.806h0c0-2.267,1.417-3.257,3.116-2.125l39.935,23.507a6.8,6.8,0,0,1,2.974,5.806h0C4477.024,5454.726,4475.608,5455.576,4473.908,5454.726Z" transform="translate(-4431 -5416.627)" fill="#c4524c" fill-rule="evenodd"/>
      </g>
      <g id="XMLID_639_" transform="translate(0.142 59.954)">
        <path id="XMLID_641_" d="M4494.087,5285.7c0-2.124-1.274-4.814-2.974-5.806l-39.934-23.507a2.076,2.076,0,0,0-1.982-.284h0c-.142.142-.142.142-.284.142L4439,5262.2l43.616,32,10.054-5.948a.736.736,0,0,0,.567-.283h0A2.994,2.994,0,0,0,4494.087,5285.7Z" transform="translate(-4437.867 -5255.959)" fill-rule="evenodd" fill="url(#linear-gradient-48)"/>
        <path id="XMLID_640_" d="M4473.908,5330.255l-39.935-23.508a7.16,7.16,0,0,1-2.974-5.806h0c0-2.267,1.417-3.258,3.116-2.267l39.935,23.649a6.8,6.8,0,0,1,2.974,5.806h0C4477.024,5330.255,4475.608,5331.246,4473.908,5330.255Z" transform="translate(-4431 -5292.296)" fill="#c4524c" fill-rule="evenodd"/>
      </g>
      <path id="XMLID_638_" d="M4665.951,4944.082l5.523,3.257,25.207-14.161a7.393,7.393,0,0,1,6.656-.284l27.472,16.285,4.957-2.832c1.982-1.132,2.266-2.832.567-3.823l-33-19.543a7.4,7.4,0,0,0-6.656.284l-30.163,16.993C4664.394,4941.392,4664.251,4943.091,4665.951,4944.082Z" transform="translate(-4631.54 -4909.613)" fill="#6e0808" fill-rule="evenodd"/>
      <g id="XMLID_576_" transform="translate(82.559 62.508)">
        <g id="XMLID_626_">
          <path id="XMLID_637_" d="M5050.527,5279.806,5013,5301.473v-5.948L5050.527,5274Z" transform="translate(-5013 -5274)" fill-rule="evenodd" fill="url(#linear-gradient-49)"/>
          <path id="XMLID_636_" d="M5208.471,5358.806,5197,5365.462v-5.807l11.471-6.655Z" transform="translate(-5170.944 -5341.813)" fill-rule="evenodd" fill="url(#linear-gradient-50)"/>
          <path id="XMLID_635_" d="M5034.667,5422.806,5013,5435.268v-5.806L5034.667,5417Z" transform="translate(-5013 -5396.75)" fill-rule="evenodd" fill="url(#linear-gradient-51)"/>
          <path id="XMLID_634_" d="M5116.624,5434.806,5090,5450.242v-5.806L5116.624,5429Z" transform="translate(-5079.096 -5407.05)" fill-rule="evenodd" fill="url(#linear-gradient-52)"/>
          <path id="XMLID_633_" d="M5019.514,5560.948,5013,5564.63v-5.948l6.514-3.682Z" transform="translate(-5013 -5515.207)" fill-rule="evenodd" fill="url(#linear-gradient-53)"/>
          <path id="XMLID_632_" d="M5050.527,5513.807,5013,5535.473v-5.806L5050.527,5508Z" transform="translate(-5013 -5474.863)" fill-rule="evenodd" fill="url(#linear-gradient-54)"/>
          <path id="XMLID_631_" d="M5208.471,5592.806,5197,5599.462v-5.807l11.471-6.655Z" transform="translate(-5170.944 -5542.675)" fill-rule="evenodd" fill="url(#linear-gradient-55)"/>
          <path id="XMLID_630_" d="M5034.667,5657.806,5013,5670.268v-5.806L5034.667,5652Z" transform="translate(-5013 -5598.471)" fill-rule="evenodd" fill="url(#linear-gradient-56)"/>
          <path id="XMLID_629_" d="M5116.624,5668.948,5090,5684.242v-5.806L5116.624,5663Z" transform="translate(-5079.096 -5607.913)" fill-rule="evenodd" fill="url(#linear-gradient-57)"/>
          <path id="XMLID_628_" d="M5019.514,5795.807l-6.514,3.682v-5.806l6.514-3.683Z" transform="translate(-5013 -5716.928)" fill-rule="evenodd" fill="url(#linear-gradient-58)"/>
          <path id="XMLID_627_" d="M5050.527,5744.806,5013,5766.331v-5.807L5050.527,5739Z" transform="translate(-5013 -5673.151)" fill-rule="evenodd" fill="url(#linear-gradient-59)"/>
        </g>
      </g>
    </g>
    <path id="XMLID_99_" d="M5319.619,6175.293l-16.852-9.771c-2.266-1.275-1.982-3.682.708-5.24l14.161-8.072c2.691-1.558,6.657-1.7,8.922-.424l16.852,9.771c2.265,1.274,1.982,3.682-.708,5.239l-14.162,8.072C5325.85,6176.426,5321.885,6176.568,5319.619,6175.293Z" transform="translate(-1457.962 -3977.26)" fill="#6e0808" fill-rule="evenodd"/>
    <g id="XMLID_1235_" transform="translate(3843.164 2123.704)">
      <path id="XMLID_1237_" d="M5344.459,5937.688V5886.85L5300.7,5886v50.414a1.012,1.012,0,0,0,.708,1.274l19.826,11.754a4.369,4.369,0,0,0,3.965-.142l18.268-10.2A1.775,1.775,0,0,0,5344.459,5937.688Z" transform="translate(-5300.617 -5873.555)" fill="#c4524c" fill-rule="evenodd"/>
      <path id="XMLID_1236_" d="M5321.024,5823.022l-19.967-11.754c-.991-.708-.85-1.7.425-2.408l18.126-10.2a4.672,4.672,0,0,1,4.106-.142l19.826,11.754c.991.566.991,1.558-.283,2.266l-18.268,10.338A4.865,4.865,0,0,1,5321.024,5823.022Z" transform="translate(-5300.406 -5798.114)" fill-rule="evenodd" fill="url(#linear-gradient-60)"/>
    </g>
    <g id="XMLID_1516_" transform="translate(3849.508 2148.277)">
      <g id="XMLID_1518_" transform="translate(0 0)">
        <path id="XMLID_1519_" d="M5351.231,5985.71l-5.523-3.257a1.328,1.328,0,0,1-.708-1.274v-8.922c0-.567.283-.708.708-.567l5.523,3.257a1.488,1.488,0,0,1,.708,1.274v8.921C5351.938,5985.71,5351.655,5985.853,5351.231,5985.71Z" transform="translate(-5345 -5971.64)" fill="#f5e9e6" fill-rule="evenodd"/>
      </g>
    </g>
    <g id="_2_1_" transform="translate(3821.918 1820.903)">
      <g id="_2" transform="translate(0 0)">
        <g id="XMLID_803_">
          <g id="XMLID_801_" transform="translate(85.108)">
            <path id="XMLID_805_" d="M5878.113,3817.726l.142-93.747c0-2.832-1.7-6.089-3.823-7.222l-106.917-61.6a2.51,2.51,0,0,0-2.407-.283h0L5761,3657.28l2.832,3.965V3752.3a9.02,9.02,0,0,0,3.824,7.222l104.368,63.867.991-.425,3.823-2.265h0A3.3,3.3,0,0,0,5878.113,3817.726Z" transform="translate(-5759.867 -3654.687)" fill-rule="evenodd" fill="url(#linear-gradient-61)"/>
            <g id="XMLID_707_" transform="translate(0 2.24)">
              <path id="XMLID_577_" d="M5863.74,3836.829l-106.917-61.6c-2.124-1.133-3.823-4.39-3.823-7.081v-94.313c0-2.833,1.7-4.107,3.682-2.833l107.059,61.6c1.982,1.133,3.681,4.39,3.681,7.081l.142,91.623C5867.563,3834,5865.864,3838.1,5863.74,3836.829Z" transform="translate(-5753 -3670.507)" fill="#6e0808" fill-rule="evenodd"/>
              <path id="XMLID_617_" d="M5888.66,3870.928l-101.819-58.769a3.517,3.517,0,0,1-1.7-3.115l-.142-86.1c0-1.275.85-1.841,1.7-1.275l101.818,58.627a3.952,3.952,0,0,1,1.7,3.257v86.1C5890.359,3870.786,5889.509,3871.353,5888.66,3870.928Z" transform="translate(-5780.468 -3714.235)" fill-rule="evenodd" fill="url(#linear-gradient-62)"/>
              <path id="XMLID_706_" d="M6149.417,3903.295l-.425-.142a2.42,2.42,0,0,1-.991-1.841h0c0-.708.425-1.132.991-.85l.425.283a2.211,2.211,0,0,1,.991,1.841h0C6150.408,3903.295,6149.983,3903.72,6149.417,3903.295Z" transform="translate(-6092.063 -3867.822)" fill-rule="evenodd" fill="url(#linear-gradient-63)"/>
            </g>
          </g>
          <g id="XMLID_802_" transform="translate(0 103.94)">
            <path id="XMLID_804_" d="M5347,4477.9l-5.948-.425-102.385-59.052a9.068,9.068,0,0,0-8.071.425l-74.63,43.191-3.965-.425v4.107h0a2.542,2.542,0,0,0,1.417,2.125l107.057,61.6c1.983,1.133,5.665.992,8.072-.425l76.47-44.324a3.036,3.036,0,0,0,1.983-2.549h0Z" transform="translate(-5152 -4413.56)" fill="#6e0808" fill-rule="evenodd"/>
            <path id="XMLID_618_" d="M5260.731,4500.445l-107.059-61.6c-1.982-1.275-1.839-3.4.567-4.673l76.612-44.325a9.069,9.069,0,0,1,8.072-.425l107.059,61.6c1.982,1.274,1.7,3.257-.708,4.673l-76.47,44.324C5266.4,4501.437,5262.714,4501.578,5260.731,4500.445Z" transform="translate(-5152.257 -4388.667)" fill-rule="evenodd" fill="url(#linear-gradient-64)"/>
            <path id="XMLID_619_" d="M5513.8,4509.489l-101.818-58.628c-.991-.566-.85-1.415.284-2.124l42.767-24.782a3.907,3.907,0,0,1,3.54-.142l101.817,58.627c.85.566.85,1.416-.282,2.124l-42.767,24.782A3.923,3.923,0,0,1,5513.8,4509.489Z" transform="translate(-5374.596 -4418.527)" fill-rule="evenodd" fill="url(#linear-gradient-65)"/>
            <path id="XMLID_699_" d="M5496.345,4812.794l-28.181-16.286c-.424-.283-.424-.708.142-1.133l22.8-13.17a2.434,2.434,0,0,1,1.982-.141l28.181,16.285c.426.283.426.708-.141,1.133l-22.8,13.17A2,2,0,0,1,5496.345,4812.794Z" transform="translate(-5423.133 -4726.222)" fill-rule="evenodd" fill="url(#linear-gradient-66)"/>
            <path id="XMLID_732_" d="M5411.981,4450.861l.426.284,42.625-24.64a3.524,3.524,0,0,1,3.54-.142l101.252,58.344.283-.142c1.132-.566,1.274-1.558.282-2.124l-101.817-58.627a3.907,3.907,0,0,0-3.54.142l-42.767,24.923C5411.132,4449.446,5410.99,4450.3,5411.981,4450.861Z" transform="translate(-5374.596 -4418.527)" fill="#6e0808" fill-rule="evenodd"/>
            <path id="XMLID_733_" d="M5468.164,4796.509l.851.424,22.091-12.745a2,2,0,0,1,1.982-.141l27.331,15.86.708-.425c.567-.425.567-.85.141-1.133l-28.181-16.285a2.434,2.434,0,0,0-1.982.141l-22.8,13.17C5467.74,4795.8,5467.74,4796.226,5468.164,4796.509Z" transform="translate(-5423.133 -4726.222)" fill="#6e0808" fill-rule="evenodd"/>
            <path id="XMLID_705_" d="M5502.391,4882.064l-27.048-15.577c-.424-.284-.707-.566-.565-.566l5.664-3.257c.142-.143.567,0,1.133.283l27.048,15.577c.426.283.708.567.566.708l-5.665,3.256A3.825,3.825,0,0,1,5502.391,4882.064Z" transform="translate(-5429.037 -4795.492)" fill-rule="evenodd" fill="url(#linear-gradient-67)"/>
            <g id="XMLID_800_" transform="translate(43.527 9.799)">
              <g id="XMLID_728_" transform="translate(0.061 1.133)">
                <path id="XMLID_620_" d="M5699.714,4470.13l-2.833-1.558c-.708-.424-.708-1.133.142-1.7l1.133-.566a2.9,2.9,0,0,1,2.833-.142l2.832,1.557a.915.915,0,0,1-.142,1.7l-1.133.708A3.305,3.305,0,0,1,5699.714,4470.13Z" transform="translate(-5662.866 -4465.862)" fill="#6e0808" fill-rule="evenodd"/>
                <path id="XMLID_652_" d="M5750.011,4499.129l-2.833-1.558c-.708-.424-.566-1.132.142-1.7l1.274-.566a2.627,2.627,0,0,1,2.691-.141l2.974,1.557c.708.426.567,1.134-.283,1.7l-1.133.708A3.3,3.3,0,0,1,5750.011,4499.129Z" transform="translate(-5706.083 -4490.754)" fill="#6e0808" fill-rule="evenodd"/>
                <path id="XMLID_653_" d="M5800.227,4528.13l-2.975-1.558c-.707-.425-.565-1.132.284-1.7l1.133-.566a2.9,2.9,0,0,1,2.832-.142l2.832,1.558c.708.425.567,1.133-.283,1.7l-1.133.708A2.994,2.994,0,0,1,5800.227,4528.13Z" transform="translate(-5749.076 -4515.648)" fill="#6e0808" fill-rule="evenodd"/>
                <path id="XMLID_655_" d="M5850.713,4557.13l-2.832-1.558c-.708-.425-.708-1.133.142-1.7l1.133-.566a2.9,2.9,0,0,1,2.832-.142l2.832,1.558c.708.425.708,1.133-.141,1.7l-1.134.708A3.3,3.3,0,0,1,5850.713,4557.13Z" transform="translate(-5792.482 -4540.542)" fill="#6e0808" fill-rule="evenodd"/>
                <path id="XMLID_654_" d="M5901.011,4586.13l-2.832-1.558c-.708-.425-.566-1.133.142-1.7l1.274-.566a2.631,2.631,0,0,1,2.69-.141l2.832,1.558c.85.425.708,1.133-.142,1.7l-1.133.708A3.3,3.3,0,0,1,5901.011,4586.13Z" transform="translate(-5835.7 -4565.436)" fill="#6e0808" fill-rule="evenodd"/>
                <path id="XMLID_663_" d="M5951.084,4615.033l-2.832-1.557c-.708-.425-.565-1.133.283-1.7l1.134-.708a3.3,3.3,0,0,1,2.832,0l2.832,1.557c.708.425.566,1.133-.283,1.7l-1.133.566A2.905,2.905,0,0,1,5951.084,4615.033Z" transform="translate(-5878.692 -4590.232)" fill="#6e0808" fill-rule="evenodd"/>
                <path id="XMLID_662_" d="M6001.372,4644.034l-2.833-1.558c-.85-.425-.708-1.133.142-1.7l1.133-.708a3.3,3.3,0,0,1,2.832,0l2.832,1.558c.708.425.708,1.133-.142,1.7l-1.133.566A2.9,2.9,0,0,1,6001.372,4644.034Z" transform="translate(-5921.758 -4615.125)" fill="#6e0808" fill-rule="evenodd"/>
                <path id="XMLID_661_" d="M6051.714,4673.034l-2.833-1.558c-.708-.425-.708-1.133.142-1.7l1.133-.708a3.3,3.3,0,0,1,2.832,0l2.832,1.558c.85.425.708,1.133-.141,1.7l-1.133.566A2.906,2.906,0,0,1,6051.714,4673.034Z" transform="translate(-5965.019 -4640.019)" fill="#6e0808" fill-rule="evenodd"/>
                <path id="XMLID_656_" d="M6102.084,4702.034l-2.833-1.558c-.708-.425-.566-1.133.284-1.7l1.133-.708a3.306,3.306,0,0,1,2.832,0l2.832,1.558c.708.425.566,1.133-.283,1.7l-1.133.566A2.9,2.9,0,0,1,6102.084,4702.034Z" transform="translate(-6008.309 -4664.912)" fill="#6e0808" fill-rule="evenodd"/>
                <path id="XMLID_671_" d="M6152.226,4730.911l-2.974-1.7c-.708-.283-.566-1.133.283-1.558l1.133-.708a3.952,3.952,0,0,1,2.832-.142l2.832,1.7c.708.425.567,1.133-.283,1.7l-1.134.567A2.634,2.634,0,0,1,6152.226,4730.911Z" transform="translate(-6051.229 -4689.682)" fill="#6e0808" fill-rule="evenodd"/>
                <path id="XMLID_670_" d="M6204.084,4760.552l-2.832-1.7c-.708-.425-.566-1.132.283-1.558l1.133-.708a3.339,3.339,0,0,1,2.832-.142l2.832,1.7c.708.425.567,1.133-.283,1.558l-1.133.708A2.908,2.908,0,0,1,6204.084,4760.552Z" transform="translate(-6095.865 -4715.075)" fill="#6e0808" fill-rule="evenodd"/>
                <path id="XMLID_669_" d="M6254.714,4789.552l-2.833-1.7c-.708-.425-.708-1.133.142-1.558l1.133-.708a3.34,3.34,0,0,1,2.833-.141l2.832,1.7c.708.426.708,1.133-.141,1.558l-1.134.708A3.338,3.338,0,0,1,6254.714,4789.552Z" transform="translate(-6139.271 -4739.968)" fill="#6e0808" fill-rule="evenodd"/>
                <path id="XMLID_668_" d="M6304.714,4818.552l-2.832-1.7c-.708-.425-.708-1.133.142-1.558l1.133-.708a3.341,3.341,0,0,1,2.832-.142l2.832,1.7c.708.425.708,1.133-.142,1.558l-1.133.708A3.338,3.338,0,0,1,6304.714,4818.552Z" transform="translate(-6182.192 -4764.862)" fill="#6e0808" fill-rule="evenodd"/>
                <path id="XMLID_667_" d="M6355.085,4847.552l-2.832-1.7c-.708-.425-.567-1.132.283-1.558l1.133-.708a3.012,3.012,0,0,1,2.69-.142l2.974,1.7c.708.425.566,1.133-.283,1.558l-1.133.708A3.338,3.338,0,0,1,6355.085,4847.552Z" transform="translate(-6225.482 -4789.755)" fill="#6e0808" fill-rule="evenodd"/>
                <g id="XMLID_682_" transform="translate(25.195 3.399)">
                  <path id="XMLID_651_" d="M5641.153,4495.688l-2.974-1.841c-.708-.425-.566-1.133.142-1.558l3.541-1.982a2.893,2.893,0,0,1,2.832-.142l2.974,1.7c.708.425.567,1.133-.283,1.558l-3.4,2.124A3.952,3.952,0,0,1,5641.153,4495.688Z" transform="translate(-5637.713 -4489.862)" fill="#6e0808" fill-rule="evenodd"/>
                  <path id="XMLID_664_" d="M5691.227,4524.545l-2.974-1.7c-.708-.425-.566-1.134.283-1.558l3.4-1.982a2.905,2.905,0,0,1,2.833-.141l2.974,1.7c.708.425.708,1.133-.142,1.558l-3.54,2.124A3.306,3.306,0,0,1,5691.227,4524.545Z" transform="translate(-5680.708 -4514.755)" fill="#6e0808" fill-rule="evenodd"/>
                  <path id="XMLID_665_" d="M5742.152,4553.968l-2.974-1.841c-.708-.283-.566-1.133.142-1.558l3.541-1.982a3.34,3.34,0,0,1,2.832-.143l2.973,1.7c.709.425.567,1.134-.282,1.7l-3.4,1.982A3.332,3.332,0,0,1,5742.152,4553.968Z" transform="translate(-5724.41 -4539.929)" fill="#6e0808" fill-rule="evenodd"/>
                  <path id="XMLID_673_" d="M5792.367,4582.688l-3.115-1.841c-.707-.283-.566-1.132.283-1.558l3.4-1.982a2.907,2.907,0,0,1,2.833-.142l2.974,1.7c.708.424.708,1.132-.142,1.7l-3.54,1.983A3.016,3.016,0,0,1,5792.367,4582.688Z" transform="translate(-5767.403 -4564.542)" fill="#6e0808" fill-rule="evenodd"/>
                  <path id="XMLID_672_" d="M5842.855,4611.688l-2.974-1.841c-.708-.425-.708-1.133.142-1.558l3.4-1.982a2.906,2.906,0,0,1,2.832-.141l2.974,1.7c.849.424.708,1.133-.142,1.7l-3.4,1.984A3.342,3.342,0,0,1,5842.855,4611.688Z" transform="translate(-5810.81 -4589.436)" fill="#6e0808" fill-rule="evenodd"/>
                  <path id="XMLID_666_" d="M5893.368,4640.968l-3.116-1.7c-.708-.425-.565-1.133.283-1.7l3.4-1.983a3.334,3.334,0,0,1,2.832-.141l2.974,1.841c.708.283.708,1.133-.141,1.558l-3.54,1.983A2.631,2.631,0,0,1,5893.368,4640.968Z" transform="translate(-5854.101 -4614.608)" fill="#6e0808" fill-rule="evenodd"/>
                  <path id="XMLID_678_" d="M5943.855,4669.968l-2.975-1.7c-.708-.424-.708-1.132.142-1.7l3.54-1.983a3.016,3.016,0,0,1,2.691-.142l3.115,1.7c.708.425.566,1.133-.283,1.7l-3.4,1.982A3.333,3.333,0,0,1,5943.855,4669.968Z" transform="translate(-5897.507 -4639.502)" fill="#6e0808" fill-rule="evenodd"/>
                  <path id="XMLID_677_" d="M5994.514,4699.45l-2.974-1.7c-.85-.425-.708-1.133.142-1.558l3.4-2.125a3.305,3.305,0,0,1,2.832,0l2.974,1.7c.85.425.708,1.132-.142,1.557l-3.4,1.983A2.9,2.9,0,0,1,5994.514,4699.45Z" transform="translate(-5940.944 -4664.877)" fill="#6e0808" fill-rule="evenodd"/>
                  <path id="XMLID_676_" d="M6044.855,4728.326l-2.974-1.7c-.708-.425-.708-1.133.142-1.558l3.541-2.124a3.551,3.551,0,0,1,2.69-.141l3.116,1.841c.708.424.566,1.132-.284,1.558l-3.4,1.983A2.909,2.909,0,0,1,6044.855,4728.326Z" transform="translate(-5984.205 -4689.647)" fill="#6e0808" fill-rule="evenodd"/>
                  <path id="XMLID_675_" d="M6095.152,4756.968l-2.974-1.7c-.708-.425-.566-1.133.142-1.7l3.541-1.983a3.338,3.338,0,0,1,2.832-.142l2.974,1.842c.708.425.567,1.133-.142,1.557l-3.541,1.982A2.9,2.9,0,0,1,6095.152,4756.968Z" transform="translate(-6027.421 -4714.182)" fill="#6e0808" fill-rule="evenodd"/>
                  <path id="XMLID_674_" d="M6146.153,4786.546l-2.974-1.7c-.708-.426-.567-1.134.141-1.558l3.541-1.982a2.905,2.905,0,0,1,2.832-.142l2.974,1.7c.708.424.567,1.132-.283,1.557l-3.4,2.125A3.306,3.306,0,0,1,6146.153,4786.546Z" transform="translate(-6071.2 -4739.653)" fill="#6e0808" fill-rule="evenodd"/>
                  <path id="XMLID_681_" d="M6196.227,4815.45l-2.974-1.7c-.709-.425-.566-1.132.282-1.558l3.4-2.124a3.3,3.3,0,0,1,2.833,0l2.974,1.7c.709.424.709,1.132-.141,1.557l-3.541,1.983A2.908,2.908,0,0,1,6196.227,4815.45Z" transform="translate(-6114.193 -4764.45)" fill="#6e0808" fill-rule="evenodd"/>
                  <path id="XMLID_680_" d="M6246.514,4844.45l-2.974-1.7c-.85-.425-.708-1.132.142-1.558l3.4-2.124a3.3,3.3,0,0,1,2.831,0l2.975,1.7c.85.424.708,1.133-.142,1.558l-3.4,1.982A2.906,2.906,0,0,1,6246.514,4844.45Z" transform="translate(-6157.258 -4789.343)" fill="#6e0808" fill-rule="evenodd"/>
                  <path id="XMLID_679_" d="M6297.368,4873.546l-3.115-1.7c-.708-.426-.567-1.133.283-1.558l3.4-1.982a2.906,2.906,0,0,1,2.833-.142l2.974,1.7c.708.424.708,1.132-.142,1.557l-3.541,2.125A2.622,2.622,0,0,1,6297.368,4873.546Z" transform="translate(-6200.89 -4814.333)" fill="#6e0808" fill-rule="evenodd"/>
                </g>
                <g id="XMLID_683_" transform="translate(16.981 8.26)">
                  <path id="XMLID_697_" d="M5583.152,4529.968l-2.974-1.7c-.708-.425-.566-1.133.142-1.7l3.541-1.983a3.319,3.319,0,0,1,2.832-.142l2.974,1.7c.708.425.567,1.133-.283,1.7l-3.4,1.982A3.333,3.333,0,0,1,5583.152,4529.968Z" transform="translate(-5579.713 -4524.188)" fill="#6e0808" fill-rule="evenodd"/>
                  <path id="XMLID_696_" d="M5633.226,4558.968l-2.974-1.7c-.708-.426-.565-1.133.284-1.7l3.4-1.983a3.339,3.339,0,0,1,2.833-.142l2.974,1.7c.708.425.566,1.133-.142,1.7l-3.54,1.982A3.337,3.337,0,0,1,5633.226,4558.968Z" transform="translate(-5622.707 -4549.082)" fill="#6e0808" fill-rule="evenodd"/>
                  <path id="XMLID_695_" d="M5684.153,4588.326l-2.974-1.7c-.708-.424-.566-1.133.142-1.7l3.541-1.983a3.957,3.957,0,0,1,2.832-.142l2.974,1.841c.708.425.567,1.133-.283,1.558l-3.4,1.982A2.9,2.9,0,0,1,5684.153,4588.326Z" transform="translate(-5666.41 -4574.334)" fill="#6e0808" fill-rule="evenodd"/>
                  <path id="XMLID_694_" d="M5734.367,4616.968l-3.115-1.7c-.708-.425-.566-1.133.283-1.7l3.4-1.983a3.338,3.338,0,0,1,2.832-.142l2.974,1.841c.708.425.708,1.133-.142,1.558l-3.54,1.982A2.642,2.642,0,0,1,5734.367,4616.968Z" transform="translate(-5709.404 -4598.868)" fill="#6e0808" fill-rule="evenodd"/>
                  <path id="XMLID_693_" d="M5784.855,4645.968l-2.974-1.7c-.708-.426-.708-1.133.142-1.7l3.54-1.983a3.013,3.013,0,0,1,2.691-.142l2.974,1.842c.85.425.708,1.133-.142,1.557l-3.4,1.982A2.9,2.9,0,0,1,5784.855,4645.968Z" transform="translate(-5752.81 -4623.762)" fill="#6e0808" fill-rule="evenodd"/>
                  <path id="XMLID_692_" d="M5835.367,4675.45l-3.115-1.7c-.708-.426-.566-1.133.283-1.559l3.4-2.124a3.311,3.311,0,0,1,2.833,0l2.973,1.7c.709.424.709,1.132-.141,1.557l-3.54,1.983A2.636,2.636,0,0,1,5835.367,4675.45Z" transform="translate(-5796.1 -4649.138)" fill="#6e0808" fill-rule="evenodd"/>
                  <path id="XMLID_691_" d="M5885.855,4704.45l-2.974-1.7c-.708-.425-.708-1.133.142-1.558l3.541-2.124a3,3,0,0,1,2.69,0l3.116,1.7c.708.424.566,1.132-.284,1.557l-3.4,1.983A2.909,2.909,0,0,1,5885.855,4704.45Z" transform="translate(-5839.507 -4674.031)" fill="#6e0808" fill-rule="evenodd"/>
                  <path id="XMLID_690_" d="M5936.514,4733.688l-2.974-1.841c-.85-.425-.708-1.133.142-1.558l3.4-1.982a2.9,2.9,0,0,1,2.832-.142l2.974,1.7c.708.425.708,1.133-.141,1.558l-3.541,2.124A3.554,3.554,0,0,1,5936.514,4733.688Z" transform="translate(-5882.944 -4699.019)" fill="#6e0808" fill-rule="evenodd"/>
                  <path id="XMLID_689_" d="M5986.855,4762.688l-2.975-1.841c-.708-.426-.708-1.133.142-1.558l3.54-1.982a2.629,2.629,0,0,1,2.691-.142l3.115,1.7c.708.425.566,1.133-.283,1.557l-3.4,2.125A3.955,3.955,0,0,1,5986.855,4762.688Z" transform="translate(-5926.205 -4723.913)" fill="#6e0808" fill-rule="evenodd"/>
                  <path id="XMLID_688_" d="M6037.226,4791.688l-2.974-1.841c-.708-.425-.566-1.134.283-1.558l3.4-1.982a2.9,2.9,0,0,1,2.832-.142l2.975,1.7c.708.425.566,1.133-.142,1.558l-3.54,2.125A3.957,3.957,0,0,1,6037.226,4791.688Z" transform="translate(-5969.495 -4748.806)" fill="#6e0808" fill-rule="evenodd"/>
                  <path id="XMLID_687_" d="M6087.855,4820.968l-2.974-1.7a.915.915,0,0,1,.142-1.7l3.541-1.983a3.32,3.32,0,0,1,2.833-.142l2.974,1.7c.708.426.566,1.133-.284,1.7l-3.4,1.982A3.334,3.334,0,0,1,6087.855,4820.968Z" transform="translate(-6012.901 -4773.979)" fill="#6e0808" fill-rule="evenodd"/>
                  <path id="XMLID_686_" d="M6138.226,4849.968l-2.974-1.7c-.708-.425-.565-1.274.284-1.7l3.4-1.982a3.341,3.341,0,0,1,2.833-.143l2.974,1.7c.708.425.566,1.133-.142,1.7l-3.541,1.982A3.314,3.314,0,0,1,6138.226,4849.968Z" transform="translate(-6056.193 -4798.873)" fill="#6e0808" fill-rule="evenodd"/>
                  <path id="XMLID_685_" d="M6188.368,4878.688l-3.116-1.841c-.707-.425-.565-1.133.284-1.558l3.4-1.982a2.906,2.906,0,0,1,2.833-.142l2.974,1.7c.708.425.708,1.133-.142,1.7l-3.54,1.983A3.016,3.016,0,0,1,6188.368,4878.688Z" transform="translate(-6099.112 -4823.486)" fill="#6e0808" fill-rule="evenodd"/>
                  <path id="XMLID_684_" d="M6239.226,4907.968l-2.973-1.7c-.708-.425-.566-1.133.283-1.7l3.4-1.983a3.337,3.337,0,0,1,2.833-.142l2.974,1.841c.708.284.708,1.133-.141,1.558l-3.541,1.982A2.893,2.893,0,0,1,6239.226,4907.968Z" transform="translate(-6142.89 -4848.659)" fill="#6e0808" fill-rule="evenodd"/>
                </g>
                <g id="XMLID_713_" transform="translate(8.355 13.154)">
                  <path id="XMLID_727_" d="M5529.307,4568.557l-10.055-5.806c-.708-.426-.565-1.133.284-1.558l3.4-2.124a3.3,3.3,0,0,1,2.832,0l10.055,5.665c.708.425.566,1.132-.283,1.7l-3.4,1.982A3.334,3.334,0,0,1,5529.307,4568.557Z" transform="translate(-5518.799 -4558.75)" fill="#6e0808" fill-rule="evenodd"/>
                  <path id="XMLID_725_" d="M5623.368,4622.546l-3.115-1.7c-.708-.425-.566-1.134.283-1.558l3.4-1.982a2.909,2.909,0,0,1,2.834-.142l2.973,1.7c.709.425.709,1.133-.141,1.558l-3.541,2.124A3,3,0,0,1,5623.368,4622.546Z" transform="translate(-5605.497 -4608.633)" fill="#6e0808" fill-rule="evenodd"/>
                  <path id="XMLID_724_" d="M5673.855,4651.45l-2.974-1.7c-.708-.426-.708-1.133.142-1.558l3.541-2.124a3,3,0,0,1,2.69,0l3.115,1.7c.708.424.566,1.133-.283,1.557l-3.4,1.983A2.908,2.908,0,0,1,5673.855,4651.45Z" transform="translate(-5648.902 -4633.43)" fill="#6e0808" fill-rule="evenodd"/>
                  <path id="XMLID_723_" d="M5724.152,4680.45l-2.974-1.7c-.708-.426-.566-1.133.142-1.558l3.541-2.124a3.3,3.3,0,0,1,2.832,0l2.974,1.7c.708.424.567,1.132-.283,1.557l-3.4,1.983A2.906,2.906,0,0,1,5724.152,4680.45Z" transform="translate(-5692.12 -4658.323)" fill="#6e0808" fill-rule="evenodd"/>
                  <path id="XMLID_722_" d="M5774.855,4709.688l-2.974-1.841c-.708-.283-.708-1.133.142-1.558l3.541-1.982a2.627,2.627,0,0,1,2.69-.141l3.116,1.7c.708.424.566,1.133-.284,1.7l-3.4,1.982A3.339,3.339,0,0,1,5774.855,4709.688Z" transform="translate(-5735.6 -4683.312)" fill="#6e0808" fill-rule="evenodd"/>
                  <path id="XMLID_721_" d="M5825.152,4738.688l-2.974-1.841c-.708-.426-.566-1.133.142-1.558l3.541-1.982a2.9,2.9,0,0,1,2.832-.142l2.974,1.7c.708.424.567,1.132-.142,1.7l-3.54,1.982A3.958,3.958,0,0,1,5825.152,4738.688Z" transform="translate(-5778.817 -4708.206)" fill="#6e0808" fill-rule="evenodd"/>
                  <path id="XMLID_720_" d="M5875.855,4767.968l-2.975-1.7c-.708-.424-.708-1.132.142-1.7l3.541-1.983a3.031,3.031,0,0,1,2.69-.142l3.115,1.7c.708.425.566,1.133-.283,1.7l-3.4,1.982A3.333,3.333,0,0,1,5875.855,4767.968Z" transform="translate(-5822.297 -4733.379)" fill="#6e0808" fill-rule="evenodd"/>
                  <path id="XMLID_719_" d="M5926.226,4796.967l-2.974-1.7c-.708-.425-.565-1.274.283-1.7l3.4-1.983a3.338,3.338,0,0,1,2.833-.142l2.975,1.7c.707.426.565,1.133-.143,1.7l-3.54,1.982A3.333,3.333,0,0,1,5926.226,4796.967Z" transform="translate(-5865.588 -4758.273)" fill="#6e0808" fill-rule="evenodd"/>
                  <path id="XMLID_718_" d="M5976.367,4825.968l-3.115-1.7c-.708-.425-.567-1.275.283-1.7l3.4-1.983a3.34,3.34,0,0,1,2.832-.142l2.974,1.7c.708.425.708,1.133-.141,1.7l-3.54,1.982A3.009,3.009,0,0,1,5976.367,4825.968Z" transform="translate(-5908.507 -4783.166)" fill="#6e0808" fill-rule="evenodd"/>
                  <path id="XMLID_717_" d="M6027.227,4854.968l-2.974-1.7c-.708-.425-.566-1.132.283-1.7l3.4-1.983a3.339,3.339,0,0,1,2.833-.142l2.974,1.842c.708.283.566,1.133-.142,1.557l-3.54,1.982A2.892,2.892,0,0,1,6027.227,4854.968Z" transform="translate(-5952.286 -4808.06)" fill="#6e0808" fill-rule="evenodd"/>
                  <path id="XMLID_716_" d="M6077.514,4883.968l-2.974-1.7c-.849-.425-.708-1.132.142-1.7l3.4-1.983a3.337,3.337,0,0,1,2.832-.142l2.974,1.841c.708.284.708,1.133-.141,1.558l-3.4,1.982A2.9,2.9,0,0,1,6077.514,4883.968Z" transform="translate(-5995.351 -4832.953)" fill="#6e0808" fill-rule="evenodd"/>
                  <path id="XMLID_715_" d="M6127.855,4912.968l-2.975-1.7c-.708-.425-.708-1.133.142-1.7l3.54-1.983a3.014,3.014,0,0,1,2.691-.142l3.115,1.841c.708.283.566,1.133-.283,1.558l-3.4,1.982A2.9,2.9,0,0,1,6127.855,4912.968Z" transform="translate(-6038.611 -4857.846)" fill="#6e0808" fill-rule="evenodd"/>
                  <path id="XMLID_714_" d="M6119.855,4947.265l-2.974-1.7c-.708-.425-.708-1.133.142-1.558l11.9-6.938a3,3,0,0,1,2.69,0l3.116,1.7c.708.424.566,1.133-.284,1.557l-11.753,6.8A2.9,2.9,0,0,1,6119.855,4947.265Z" transform="translate(-6031.744 -4883.221)" fill="#6e0808" fill-rule="evenodd"/>
                </g>
                <g id="XMLID_698_" transform="translate(0 17.969)">
                  <path id="XMLID_712_" d="M5463.368,4598.45l-3.115-1.7c-.708-.425-.566-1.132.283-1.558l3.4-2.124a3.306,3.306,0,0,1,2.833,0l2.974,1.7c.708.425.708,1.133-.141,1.558l-3.54,1.983A2.631,2.631,0,0,1,5463.368,4598.45Z" transform="translate(-5459.799 -4592.75)" fill="#6e0808" fill-rule="evenodd"/>
                  <path id="XMLID_711_" d="M5513.855,4627.327l-2.974-1.7c-.708-.425-.708-1.132.142-1.7l3.541-1.982a3.553,3.553,0,0,1,2.69-.142l3.116,1.841c.708.425.566,1.133-.284,1.558l-3.4,1.982A2.906,2.906,0,0,1,5513.855,4627.327Z" transform="translate(-5503.207 -4617.52)" fill="#6e0808" fill-rule="evenodd"/>
                  <path id="XMLID_710_" d="M5564.855,4656.546l-2.974-1.7c-.708-.425-.708-1.133.142-1.558l3.541-1.982a2.626,2.626,0,0,1,2.69-.142l3.116,1.7c.708.425.566,1.133-.284,1.558l-3.4,2.125A3.3,3.3,0,0,1,5564.855,4656.546Z" transform="translate(-5546.982 -4642.633)" fill="#6e0808" fill-rule="evenodd"/>
                  <path id="XMLID_709_" d="M5615.152,4685.45l-2.974-1.7c-.708-.425-.566-1.132.142-1.558l3.541-2.124a3.3,3.3,0,0,1,2.832,0l2.974,1.7c.708.424.567,1.133-.283,1.557l-3.4,1.983A2.906,2.906,0,0,1,5615.152,4685.45Z" transform="translate(-5590.201 -4667.43)" fill="#6e0808" fill-rule="evenodd"/>
                  <path id="XMLID_708_" d="M5686.751,4727.007l-24.5-14.16c-.708-.425-.567-1.133.283-1.558l3.4-1.982a2.905,2.905,0,0,1,2.832-.142l24.5,14.019c.708.426.567,1.134-.142,1.7l-3.541,1.982A3.332,3.332,0,0,1,5686.751,4727.007Z" transform="translate(-5633.193 -4692.419)" fill="#6e0808" fill-rule="evenodd"/>
                  <path id="XMLID_704_" d="M5867.368,4830.968l-3.116-1.7c-.708-.425-.566-1.274.283-1.7l3.4-1.983a3.343,3.343,0,0,1,2.832-.142l2.974,1.7c.708.425.708,1.133-.142,1.7l-3.54,1.982A3.007,3.007,0,0,1,5867.368,4830.968Z" transform="translate(-5806.588 -4792.273)" fill="#6e0808" fill-rule="evenodd"/>
                  <path id="XMLID_703_" d="M5917.855,4859.968l-2.974-1.7a.914.914,0,0,1,.142-1.7l3.54-1.983a3.014,3.014,0,0,1,2.69-.142l3.116,1.7c.708.425.566,1.133-.283,1.7l-3.4,1.982A3.334,3.334,0,0,1,5917.855,4859.968Z" transform="translate(-5849.995 -4817.166)" fill="#6e0808" fill-rule="evenodd"/>
                  <path id="XMLID_702_" d="M5968.514,4888.967l-2.974-1.7c-.85-.425-.708-1.133.142-1.7l3.4-1.984a3.339,3.339,0,0,1,2.832-.141l2.975,1.841c.708.284.708,1.134-.142,1.558l-3.4,1.982A2.9,2.9,0,0,1,5968.514,4888.967Z" transform="translate(-5893.431 -4842.06)" fill="#6e0808" fill-rule="evenodd"/>
                  <path id="XMLID_701_" d="M6018.855,4917.968l-2.974-1.7c-.708-.426-.708-1.134.142-1.7l3.541-1.982a3.03,3.03,0,0,1,2.69-.143l3.116,1.842c.708.283.566,1.134-.284,1.558l-3.4,1.982A2.9,2.9,0,0,1,6018.855,4917.968Z" transform="translate(-5936.691 -4866.953)" fill="#6e0808" fill-rule="evenodd"/>
                  <path id="XMLID_700_" d="M6069.226,4946.968l-2.974-1.7c-.708-.425-.565-1.132.284-1.7l3.4-1.983a3.34,3.34,0,0,1,2.833-.142l2.974,1.841c.708.284.566,1.133-.142,1.558l-3.54,1.982A2.906,2.906,0,0,1,6069.226,4946.968Z" transform="translate(-5979.983 -4891.847)" fill="#6e0808" fill-rule="evenodd"/>
                </g>
              </g>
              <g id="XMLID_726_">
                <path id="XMLID_799_" d="M5699.011,4462.129l-2.832-1.557c-.708-.425-.566-1.133.142-1.7l1.133-.566a2.9,2.9,0,0,1,2.832-.142l2.832,1.558c.85.425.708,1.133-.142,1.7l-1.133.708A3.3,3.3,0,0,1,5699.011,4462.129Z" transform="translate(-5662.244 -4457.861)" fill="#efe1ee" fill-rule="evenodd"/>
                <path id="XMLID_798_" d="M5749.084,4491.13l-2.832-1.557c-.708-.426-.566-1.134.284-1.7l1.132-.567a2.89,2.89,0,0,1,2.832-.142l2.833,1.558c.708.425.567,1.133-.283,1.7l-1.133.708A3.3,3.3,0,0,1,5749.084,4491.13Z" transform="translate(-5705.238 -4482.755)" fill="#efe1ee" fill-rule="evenodd"/>
                <path id="XMLID_797_" d="M5799.226,4520.13l-2.974-1.558c-.708-.425-.566-1.133.283-1.7l1.133-.567a2.906,2.906,0,0,1,2.833-.142l2.832,1.558c.708.425.567,1.133-.142,1.7l-1.274.708A3,3,0,0,1,5799.226,4520.13Z" transform="translate(-5748.157 -4507.649)" fill="#efe1ee" fill-rule="evenodd"/>
                <path id="XMLID_796_" d="M5849.714,4549.13l-2.833-1.558c-.708-.425-.708-1.133.141-1.7l1.134-.566a2.906,2.906,0,0,1,2.832-.141l2.832,1.558c.708.425.708,1.133-.141,1.7l-1.133.708A3.3,3.3,0,0,1,5849.714,4549.13Z" transform="translate(-5791.563 -4532.542)" fill="#efe1ee" fill-rule="evenodd"/>
                <path id="XMLID_795_" d="M5900.011,4578.033l-2.833-1.558c-.708-.424-.566-1.133.142-1.7l1.274-.708a3,3,0,0,1,2.69,0l2.974,1.557c.708.425.566,1.133-.283,1.7l-1.133.708A3.3,3.3,0,0,1,5900.011,4578.033Z" transform="translate(-5834.781 -4557.339)" fill="#efe1ee" fill-rule="evenodd"/>
                <path id="XMLID_794_" d="M5950.226,4607.034l-2.974-1.558c-.708-.425-.567-1.133.283-1.7l1.134-.708a3.3,3.3,0,0,1,2.832,0l2.832,1.558c.708.425.566,1.133-.283,1.7l-1.134.567A2.639,2.639,0,0,1,5950.226,4607.034Z" transform="translate(-5877.773 -4582.232)" fill="#efe1ee" fill-rule="evenodd"/>
                <path id="XMLID_793_" d="M6000.713,4636.034l-2.832-1.558c-.708-.425-.708-1.133.142-1.7l1.133-.708a3.3,3.3,0,0,1,2.833,0l2.832,1.558c.708.425.708,1.133-.141,1.7l-1.134.567A2.9,2.9,0,0,1,6000.713,4636.034Z" transform="translate(-5921.179 -4607.125)" fill="#efe1ee" fill-rule="evenodd"/>
                <path id="XMLID_792_" d="M6051.011,4665.034l-2.832-1.558c-.708-.425-.567-1.133.142-1.7l1.274-.708a3,3,0,0,1,2.691,0l2.832,1.558c.85.424.708,1.132-.142,1.7l-1.132.567A2.9,2.9,0,0,1,6051.011,4665.034Z" transform="translate(-5964.396 -4632.019)" fill="#efe1ee" fill-rule="evenodd"/>
                <path id="XMLID_791_" d="M6101.084,4694.034l-2.832-1.558c-.708-.426-.565-1.134.284-1.7l1.133-.708a3.3,3.3,0,0,1,2.832,0l2.832,1.558c.708.424.567,1.133-.283,1.7l-1.133.567A2.894,2.894,0,0,1,6101.084,4694.034Z" transform="translate(-6007.39 -4656.912)" fill="#efe1ee" fill-rule="evenodd"/>
                <path id="XMLID_790_" d="M6151.372,4723.034l-2.833-1.557c-.85-.425-.708-1.134.142-1.7l1.133-.708a3.305,3.305,0,0,1,2.832,0l2.832,1.558c.708.424.567,1.133-.142,1.7l-1.133.566A2.9,2.9,0,0,1,6151.372,4723.034Z" transform="translate(-6050.455 -4681.806)" fill="#efe1ee" fill-rule="evenodd"/>
                <path id="XMLID_789_" d="M6203.227,4752.552l-2.974-1.7c-.708-.425-.566-1.133.283-1.558l1.134-.708a3.336,3.336,0,0,1,2.832-.142l2.832,1.7c.708.426.566,1.133-.283,1.558l-1.134.708A2.632,2.632,0,0,1,6203.227,4752.552Z" transform="translate(-6094.946 -4707.075)" fill="#efe1ee" fill-rule="evenodd"/>
                <path id="XMLID_788_" d="M6253.713,4781.552l-2.832-1.7c-.708-.425-.708-1.133.142-1.558l1.133-.708a3.341,3.341,0,0,1,2.833-.142l2.832,1.7c.708.425.708,1.133-.142,1.558l-1.134.708A2.909,2.909,0,0,1,6253.713,4781.552Z" transform="translate(-6138.352 -4731.968)" fill="#efe1ee" fill-rule="evenodd"/>
                <path id="XMLID_787_" d="M6304.011,4810.552l-2.833-1.7c-.708-.425-.567-1.132.142-1.558l1.274-.708a3.013,3.013,0,0,1,2.691-.142l2.832,1.7c.85.425.708,1.133-.142,1.558l-1.132.708A3.338,3.338,0,0,1,6304.011,4810.552Z" transform="translate(-6181.568 -4756.862)" fill="#efe1ee" fill-rule="evenodd"/>
                <path id="XMLID_786_" d="M6354.084,4839.552l-2.832-1.7c-.708-.425-.565-1.133.284-1.558l1.133-.708a3.338,3.338,0,0,1,2.832-.142l2.832,1.7c.708.426.567,1.133-.283,1.558l-1.133.708A3.338,3.338,0,0,1,6354.084,4839.552Z" transform="translate(-6224.563 -4781.755)" fill="#efe1ee" fill-rule="evenodd"/>
                <g id="XMLID_771_" transform="translate(25.114 3.399)">
                  <path id="XMLID_785_" d="M5640.152,4487.546l-2.973-1.7c-.708-.425-.567-1.133.141-1.558l3.541-1.982a2.9,2.9,0,0,1,2.832-.141l2.974,1.7c.708.424.567,1.133-.283,1.558l-3.4,2.125A3.31,3.31,0,0,1,5640.152,4487.546Z" transform="translate(-5636.713 -4481.862)" fill="#efe1ee" fill-rule="evenodd"/>
                  <path id="XMLID_784_" d="M5690.368,4516.546l-3.115-1.7c-.708-.425-.566-1.133.283-1.558l3.4-1.982a2.906,2.906,0,0,1,2.833-.142l2.974,1.7c.708.424.708,1.132-.142,1.558l-3.54,2.124A3,3,0,0,1,5690.368,4516.546Z" transform="translate(-5679.707 -4506.755)" fill="#efe1ee" fill-rule="evenodd"/>
                  <path id="XMLID_783_" d="M5741.226,4545.688l-2.974-1.841c-.708-.283-.565-1.133.283-1.558l3.4-1.982a2.907,2.907,0,0,1,2.833-.142l2.974,1.7c.708.424.566,1.132-.142,1.7l-3.54,1.982A3.342,3.342,0,0,1,5741.226,4545.688Z" transform="translate(-5723.483 -4531.649)" fill="#efe1ee" fill-rule="evenodd"/>
                  <path id="XMLID_782_" d="M5791.368,4574.688l-3.116-1.841c-.708-.283-.566-1.132.283-1.558l3.4-1.982a2.908,2.908,0,0,1,2.833-.141l2.975,1.7c.707.424.707,1.133-.143,1.7l-3.54,1.982A3.012,3.012,0,0,1,5791.368,4574.688Z" transform="translate(-5766.403 -4556.542)" fill="#efe1ee" fill-rule="evenodd"/>
                  <path id="XMLID_781_" d="M5841.855,4603.688l-2.973-1.841c-.708-.284-.708-1.133.141-1.558l3.541-1.982a2.628,2.628,0,0,1,2.691-.142l3.115,1.7c.708.425.566,1.133-.283,1.7l-3.4,1.982A3.339,3.339,0,0,1,5841.855,4603.688Z" transform="translate(-5809.811 -4581.435)" fill="#efe1ee" fill-rule="evenodd"/>
                  <path id="XMLID_780_" d="M5892.514,4632.968l-2.973-1.7c-.85-.425-.708-1.133.141-1.7l3.4-1.983a3.34,3.34,0,0,1,2.832-.142l2.974,1.7c.85.425.708,1.275-.141,1.7l-3.4,1.982A3.335,3.335,0,0,1,5892.514,4632.968Z" transform="translate(-5853.247 -4606.608)" fill="#efe1ee" fill-rule="evenodd"/>
                  <path id="XMLID_779_" d="M5942.855,4661.968l-2.974-1.7c-.708-.425-.708-1.134.141-1.7l3.541-1.983a3.319,3.319,0,0,1,2.832-.142l2.974,1.7c.708.426.566,1.275-.283,1.7l-3.4,1.982A3.335,3.335,0,0,1,5942.855,4661.968Z" transform="translate(-5896.507 -4631.502)" fill="#efe1ee" fill-rule="evenodd"/>
                  <path id="XMLID_778_" d="M5993.855,4691.326l-2.974-1.7c-.708-.424-.708-1.133.142-1.7l3.541-1.983a3.555,3.555,0,0,1,2.69-.141l3.116,1.841c.708.425.566,1.133-.284,1.558l-3.4,1.982A2.906,2.906,0,0,1,5993.855,4691.326Z" transform="translate(-5940.286 -4656.754)" fill="#efe1ee" fill-rule="evenodd"/>
                  <path id="XMLID_777_" d="M6044.152,4720.326l-2.974-1.7c-.708-.424-.566-1.132.142-1.7l3.541-1.983a3.954,3.954,0,0,1,2.831-.142l2.974,1.841c.709.425.567,1.133-.282,1.558l-3.4,1.982A2.907,2.907,0,0,1,6044.152,4720.326Z" transform="translate(-5983.502 -4681.647)" fill="#efe1ee" fill-rule="evenodd"/>
                  <path id="XMLID_776_" d="M6094.226,4748.968l-2.974-1.7c-.708-.425-.566-1.133.283-1.7l3.4-1.983a3.338,3.338,0,0,1,2.832-.142l2.974,1.841c.708.284.708,1.133-.142,1.558l-3.54,1.982A2.9,2.9,0,0,1,6094.226,4748.968Z" transform="translate(-6026.495 -4706.182)" fill="#efe1ee" fill-rule="evenodd"/>
                  <path id="XMLID_775_" d="M6145.152,4778.546l-2.974-1.7c-.708-.425-.566-1.132.142-1.558l3.541-1.982a2.906,2.906,0,0,1,2.832-.141l2.974,1.7c.708.424.567,1.133-.142,1.558l-3.541,2.125A3.305,3.305,0,0,1,6145.152,4778.546Z" transform="translate(-6070.2 -4731.653)" fill="#efe1ee" fill-rule="evenodd"/>
                  <path id="XMLID_774_" d="M6195.368,4807.45l-3.115-1.7c-.708-.425-.566-1.132.283-1.558l3.4-2.124a3.3,3.3,0,0,1,2.832,0l2.974,1.7c.708.424.708,1.133-.142,1.557l-3.54,1.983A2.633,2.633,0,0,1,6195.368,4807.45Z" transform="translate(-6113.192 -4756.45)" fill="#efe1ee" fill-rule="evenodd"/>
                  <path id="XMLID_773_" d="M6245.855,4836.45l-2.975-1.7c-.708-.425-.708-1.133.142-1.558l3.54-2.124a3,3,0,0,1,2.691,0l3.115,1.7c.708.425.566,1.133-.283,1.558l-3.4,1.983A2.909,2.909,0,0,1,6245.855,4836.45Z" transform="translate(-6156.599 -4781.343)" fill="#efe1ee" fill-rule="evenodd"/>
                  <path id="XMLID_772_" d="M6296.368,4865.688l-3.116-1.841c-.708-.425-.565-1.133.283-1.558l3.4-1.982a2.9,2.9,0,0,1,2.833-.142l2.973,1.7c.709.425.709,1.133-.141,1.7l-3.54,1.982A3.557,3.557,0,0,1,6296.368,4865.688Z" transform="translate(-6199.89 -4806.333)" fill="#efe1ee" fill-rule="evenodd"/>
                </g>
                <g id="XMLID_756_" transform="translate(16.901 8.26)">
                  <path id="XMLID_770_" d="M5582.152,4521.968l-2.974-1.7c-.708-.425-.566-1.132.142-1.7l3.541-1.983a3.338,3.338,0,0,1,2.832-.142l2.973,1.7c.709.425.567,1.133-.282,1.7l-3.4,1.982A3.336,3.336,0,0,1,5582.152,4521.968Z" transform="translate(-5578.713 -4516.189)" fill="#efe1ee" fill-rule="evenodd"/>
                  <path id="XMLID_769_" d="M5632.368,4550.968l-3.116-1.7c-.708-.425-.565-1.133.284-1.7l3.4-1.983a3.339,3.339,0,0,1,2.833-.142l2.973,1.7c.708.426.708,1.134-.141,1.7l-3.541,1.982A3.009,3.009,0,0,1,5632.368,4550.968Z" transform="translate(-5621.707 -4541.082)" fill="#efe1ee" fill-rule="evenodd"/>
                  <path id="XMLID_768_" d="M5683.226,4579.968l-2.974-1.7c-.708-.425-.565-1.133.283-1.7l3.4-1.983a3.338,3.338,0,0,1,2.832-.142l2.975,1.841c.708.425.566,1.133-.142,1.558l-3.541,1.982A2.9,2.9,0,0,1,5683.226,4579.968Z" transform="translate(-5665.484 -4565.975)" fill="#efe1ee" fill-rule="evenodd"/>
                  <path id="XMLID_767_" d="M5733.368,4608.968l-3.115-1.7c-.708-.425-.566-1.132.283-1.7l3.4-1.983a3.339,3.339,0,0,1,2.833-.142l2.974,1.842c.708.425.708,1.133-.142,1.557l-3.54,1.982A2.629,2.629,0,0,1,5733.368,4608.968Z" transform="translate(-5708.404 -4590.869)" fill="#efe1ee" fill-rule="evenodd"/>
                  <path id="XMLID_766_" d="M5783.855,4637.968l-2.975-1.7c-.708-.425-.708-1.132.142-1.7l3.541-1.983a3.01,3.01,0,0,1,2.69-.142l3.116,1.841c.707.425.565,1.133-.284,1.558l-3.4,1.983A2.9,2.9,0,0,1,5783.855,4637.968Z" transform="translate(-5751.81 -4615.762)" fill="#efe1ee" fill-rule="evenodd"/>
                  <path id="XMLID_765_" d="M5834.368,4667.45l-3.116-1.7c-.708-.425-.566-1.133.283-1.557l3.4-2.125a3.3,3.3,0,0,1,2.833,0l2.975,1.7c.707.426.707,1.133-.143,1.558l-3.54,1.983A2.63,2.63,0,0,1,5834.368,4667.45Z" transform="translate(-5795.1 -4641.137)" fill="#efe1ee" fill-rule="evenodd"/>
                  <path id="XMLID_764_" d="M5884.855,4696.45l-2.974-1.7c-.708-.425-.708-1.132.142-1.558l3.541-2.124a3,3,0,0,1,2.69,0l3.116,1.7c.708.425.566,1.133-.284,1.558l-3.4,1.983A2.906,2.906,0,0,1,5884.855,4696.45Z" transform="translate(-5838.508 -4666.031)" fill="#efe1ee" fill-rule="evenodd"/>
                  <path id="XMLID_763_" d="M5935.514,4725.546l-2.973-1.7c-.85-.425-.708-1.134.141-1.558l3.4-1.982a2.9,2.9,0,0,1,2.832-.142l2.974,1.7c.85.425.708,1.133-.141,1.558l-3.4,2.124A3.3,3.3,0,0,1,5935.514,4725.546Z" transform="translate(-5881.944 -4691.019)" fill="#efe1ee" fill-rule="evenodd"/>
                  <path id="XMLID_762_" d="M5985.855,4754.546l-2.975-1.7c-.708-.425-.708-1.133.142-1.558l3.541-1.982a2.892,2.892,0,0,1,2.832-.142l2.974,1.7c.708.425.566,1.133-.283,1.558l-3.4,2.124A3.3,3.3,0,0,1,5985.855,4754.546Z" transform="translate(-5925.205 -4715.913)" fill="#efe1ee" fill-rule="evenodd"/>
                  <path id="XMLID_761_" d="M6036.227,4783.546l-2.974-1.7c-.709-.425-.566-1.133.282-1.558l3.4-1.982a2.905,2.905,0,0,1,2.833-.141l2.974,1.7c.708.425.566,1.133-.142,1.558l-3.54,2.125A3.305,3.305,0,0,1,6036.227,4783.546Z" transform="translate(-5968.495 -4740.806)" fill="#efe1ee" fill-rule="evenodd"/>
                  <path id="XMLID_760_" d="M6087.152,4812.688l-2.974-1.841c-.708-.284-.566-1.133.142-1.558l3.541-1.982a2.9,2.9,0,0,1,2.832-.142l2.973,1.7c.709.424.567,1.132-.141,1.7l-3.541,1.983A3.339,3.339,0,0,1,6087.152,4812.688Z" transform="translate(-6012.2 -4765.7)" fill="#efe1ee" fill-rule="evenodd"/>
                  <path id="XMLID_759_" d="M6137.227,4841.688l-2.974-1.841c-.708-.283-.566-1.132.284-1.558l3.4-1.982a2.906,2.906,0,0,1,2.833-.142l2.974,1.7c.708.424.708,1.132-.142,1.7l-3.54,1.982A3.321,3.321,0,0,1,6137.227,4841.688Z" transform="translate(-6055.193 -4790.593)" fill="#efe1ee" fill-rule="evenodd"/>
                  <path id="XMLID_758_" d="M6187.514,4870.688l-2.974-1.841c-.849-.283-.708-1.132.142-1.558l3.4-1.982a2.906,2.906,0,0,1,2.832-.141l2.974,1.7c.85.424.708,1.133-.142,1.7l-3.4,1.982A3.339,3.339,0,0,1,6187.514,4870.688Z" transform="translate(-6098.258 -4815.486)" fill="#efe1ee" fill-rule="evenodd"/>
                  <path id="XMLID_757_" d="M6238.368,4899.967l-3.116-1.7c-.708-.424-.566-1.133.283-1.7l3.4-1.983a3.341,3.341,0,0,1,2.832-.142l2.974,1.7a.915.915,0,0,1-.142,1.7l-3.54,1.982A3.007,3.007,0,0,1,6238.368,4899.967Z" transform="translate(-6141.89 -4840.659)" fill="#efe1ee" fill-rule="evenodd"/>
                </g>
                <g id="XMLID_742_" transform="translate(8.275 13.154)">
                  <path id="XMLID_755_" d="M5528.306,4560.556l-10.054-5.806c-.707-.425-.566-1.132.284-1.558l3.4-2.124a3.3,3.3,0,0,1,2.833,0l10.055,5.664c.708.425.566,1.133-.143,1.7l-3.54,1.982A3.335,3.335,0,0,1,5528.306,4560.556Z" transform="translate(-5517.799 -4550.75)" fill="#efe1ee" fill-rule="evenodd"/>
                  <path id="XMLID_754_" d="M5622.367,4614.546l-3.115-1.7c-.708-.425-.566-1.133.283-1.558l3.4-1.982a2.905,2.905,0,0,1,2.832-.142l2.974,1.7c.708.424.708,1.132-.142,1.557l-3.54,2.125A3,3,0,0,1,5622.367,4614.546Z" transform="translate(-5604.496 -4600.633)" fill="#efe1ee" fill-rule="evenodd"/>
                  <path id="XMLID_753_" d="M5672.855,4643.546l-2.975-1.7c-.708-.425-.708-1.132.143-1.558l3.539-1.982a2.631,2.631,0,0,1,2.691-.142l3.115,1.7c.708.424.566,1.133-.283,1.558l-3.4,2.125A3.305,3.305,0,0,1,5672.855,4643.546Z" transform="translate(-5647.902 -4625.526)" fill="#efe1ee" fill-rule="evenodd"/>
                  <path id="XMLID_752_" d="M5723.152,4672.45l-2.974-1.7c-.708-.425-.566-1.133.142-1.558l3.54-2.124a3.3,3.3,0,0,1,2.833,0l2.973,1.7c.709.424.567,1.133-.141,1.557l-3.541,1.983A2.908,2.908,0,0,1,5723.152,4672.45Z" transform="translate(-5691.12 -4650.323)" fill="#efe1ee" fill-rule="evenodd"/>
                  <path id="XMLID_751_" d="M5773.855,4701.688l-2.974-1.841c-.708-.426-.708-1.133.142-1.558l3.541-1.982a2.639,2.639,0,0,1,2.69-.142l3.116,1.7c.708.425.566,1.133-.284,1.7l-3.4,1.982A3.338,3.338,0,0,1,5773.855,4701.688Z" transform="translate(-5734.6 -4675.312)" fill="#efe1ee" fill-rule="evenodd"/>
                  <path id="XMLID_750_" d="M5824.226,4730.546l-2.974-1.7c-.708-.425-.566-1.133.283-1.558l3.4-1.982a2.9,2.9,0,0,1,2.832-.142l2.974,1.7c.708.425.566,1.133-.142,1.558l-3.541,2.125A2.881,2.881,0,0,1,5824.226,4730.546Z" transform="translate(-5777.891 -4700.206)" fill="#efe1ee" fill-rule="evenodd"/>
                  <path id="XMLID_749_" d="M5875.153,4759.969l-2.974-1.7c-.708-.425-.566-1.133.142-1.7l3.541-1.982a3.335,3.335,0,0,1,2.832-.143l2.974,1.7c.708.426.567,1.133-.283,1.7l-3.4,1.982A3.336,3.336,0,0,1,5875.153,4759.969Z" transform="translate(-5821.595 -4725.379)" fill="#efe1ee" fill-rule="evenodd"/>
                  <path id="XMLID_748_" d="M5925.367,4788.688l-3.115-1.841c-.708-.283-.565-1.133.283-1.558l3.4-1.982a2.9,2.9,0,0,1,2.833-.142l2.974,1.7c.708.425.708,1.133-.142,1.7l-3.54,1.982A3.03,3.03,0,0,1,5925.367,4788.688Z" transform="translate(-5864.588 -4749.991)" fill="#efe1ee" fill-rule="evenodd"/>
                  <path id="XMLID_747_" d="M5975.514,4817.688l-2.974-1.841c-.85-.284-.708-1.133.142-1.558l3.4-1.982a2.906,2.906,0,0,1,2.833-.142l2.975,1.7c.708.425.708,1.133-.142,1.7l-3.4,1.982A3.338,3.338,0,0,1,5975.514,4817.688Z" transform="translate(-5907.654 -4774.885)" fill="#efe1ee" fill-rule="evenodd"/>
                  <path id="XMLID_746_" d="M6026.368,4846.968l-3.116-1.7c-.708-.425-.565-1.133.284-1.7l3.4-1.983a3.34,3.34,0,0,1,2.833-.142l2.974,1.841c.708.425.708,1.133-.142,1.558l-3.54,1.982A3.009,3.009,0,0,1,6026.368,4846.968Z" transform="translate(-5951.285 -4800.06)" fill="#efe1ee" fill-rule="evenodd"/>
                  <path id="XMLID_745_" d="M6076.855,4875.968l-2.974-1.7c-.708-.425-.708-1.133.142-1.7l3.541-1.983a3.011,3.011,0,0,1,2.69-.142l3.116,1.7c.708.425.566,1.275-.284,1.7l-3.4,1.982A3.335,3.335,0,0,1,6076.855,4875.968Z" transform="translate(-5994.691 -4824.953)" fill="#efe1ee" fill-rule="evenodd"/>
                  <path id="XMLID_744_" d="M6127.152,4904.968l-2.974-1.7c-.708-.425-.566-1.133.142-1.7l3.541-1.982a3.34,3.34,0,0,1,2.832-.143l2.974,1.7c.708.425.567,1.274-.283,1.7l-3.4,1.982A3.337,3.337,0,0,1,6127.152,4904.968Z" transform="translate(-6037.909 -4849.846)" fill="#efe1ee" fill-rule="evenodd"/>
                  <path id="XMLID_743_" d="M6119.152,4939.141l-2.974-1.7c-.708-.424-.566-1.132.142-1.558l11.9-6.938a3.924,3.924,0,0,1,2.833-.142l2.973,1.841c.708.424.567,1.133-.283,1.558l-11.754,6.8A2.9,2.9,0,0,1,6119.152,4939.141Z" transform="translate(-6031.042 -4875.098)" fill="#efe1ee" fill-rule="evenodd"/>
                </g>
                <g id="XMLID_729_" transform="translate(0 17.969)">
                  <path id="XMLID_741_" d="M5462.855,4590.45l-2.975-1.7c-.708-.426-.708-1.134.142-1.559l3.54-2.123a3,3,0,0,1,2.691,0l3.115,1.7c.708.424.566,1.133-.283,1.557l-3.4,1.983A2.91,2.91,0,0,1,5462.855,4590.45Z" transform="translate(-5459.366 -4584.75)" fill="#efe1ee" fill-rule="evenodd"/>
                  <path id="XMLID_740_" d="M5513.152,4618.968l-2.974-1.7c-.708-.425-.566-1.134.142-1.7l3.54-1.983a3.34,3.34,0,0,1,2.833-.142l2.973,1.841c.709.425.567,1.133-.282,1.558l-3.4,1.982A2.9,2.9,0,0,1,5513.152,4618.968Z" transform="translate(-5502.584 -4609.162)" fill="#efe1ee" fill-rule="evenodd"/>
                  <path id="XMLID_739_" d="M5563.855,4648.546l-2.974-1.7c-.708-.425-.708-1.133.142-1.558l3.541-1.982a2.63,2.63,0,0,1,2.69-.141l3.116,1.7c.708.424.566,1.133-.284,1.558l-3.4,2.125A3.307,3.307,0,0,1,5563.855,4648.546Z" transform="translate(-5546.063 -4634.633)" fill="#efe1ee" fill-rule="evenodd"/>
                  <path id="XMLID_738_" d="M5614.152,4677.45l-2.974-1.7c-.708-.425-.567-1.133.142-1.558l3.541-2.124a3.3,3.3,0,0,1,2.832,0l2.974,1.7c.708.424.567,1.133-.142,1.558l-3.541,1.982A2.906,2.906,0,0,1,5614.152,4677.45Z" transform="translate(-5589.28 -4659.43)" fill="#efe1ee" fill-rule="evenodd"/>
                  <path id="XMLID_737_" d="M5685.751,4719.009l-24.5-14.162c-.708-.425-.566-1.133.283-1.558l3.4-1.982a2.906,2.906,0,0,1,2.833-.142l24.5,14.019c.708.425.567,1.133-.141,1.7l-3.541,1.982A3.319,3.319,0,0,1,5685.751,4719.009Z" transform="translate(-5632.274 -4684.419)" fill="#efe1ee" fill-rule="evenodd"/>
                  <path id="XMLID_736_" d="M5866.514,4822.688l-2.974-1.841c-.85-.283-.708-1.133.142-1.558l3.4-1.982a2.9,2.9,0,0,1,2.832-.142l2.974,1.7c.708.425.708,1.133-.142,1.7l-3.4,1.982A3.338,3.338,0,0,1,5866.514,4822.688Z" transform="translate(-5805.814 -4783.992)" fill="#efe1ee" fill-rule="evenodd"/>
                  <path id="XMLID_735_" d="M5916.856,4851.688l-2.975-1.841c-.708-.284-.708-1.134.142-1.558l3.541-1.982a2.627,2.627,0,0,1,2.69-.142l3.116,1.7c.708.425.566,1.133-.283,1.7l-3.4,1.983A3.336,3.336,0,0,1,5916.856,4851.688Z" transform="translate(-5849.075 -4808.885)" fill="#efe1ee" fill-rule="evenodd"/>
                  <path id="XMLID_734_" d="M5967.514,4880.968l-2.974-1.7c-.85-.426-.708-1.134.142-1.7l3.4-1.982a3.34,3.34,0,0,1,2.832-.143l2.973,1.842c.85.283.708,1.134-.141,1.558l-3.4,1.982A2.905,2.905,0,0,1,5967.514,4880.968Z" transform="translate(-5892.512 -4834.06)" fill="#efe1ee" fill-rule="evenodd"/>
                  <path id="XMLID_731_" d="M6017.855,4909.968l-2.975-1.7c-.708-.425-.708-1.132.142-1.7l3.54-1.983a3.319,3.319,0,0,1,2.832-.142l2.975,1.7c.708.425.566,1.275-.283,1.7l-3.4,1.982A3.336,3.336,0,0,1,6017.855,4909.968Z" transform="translate(-5935.772 -4858.953)" fill="#efe1ee" fill-rule="evenodd"/>
                  <path id="XMLID_730_" d="M6068.226,4938.968l-2.974-1.7c-.708-.425-.566-1.133.283-1.7l3.4-1.983a3.338,3.338,0,0,1,2.832-.142l2.974,1.7c.709.426.567,1.275-.141,1.7l-3.54,1.982A3.318,3.318,0,0,1,6068.226,4938.968Z" transform="translate(-5979.063 -4883.847)" fill="#efe1ee" fill-rule="evenodd"/>
                </g>
              </g>
            </g>
          </g>
        </g>
        <g id="XMLID_1543_" transform="translate(106.206 49.643)">
          <path id="XMLID_1545_" d="M5917.989,4028.716l8.922-12.745a26.463,26.463,0,0,0-8.638-8.638c-8.78-5.381-16.144,0-16.286,11.9-.142,11.754,6.8,25.632,15.577,31.013,8.78,5.1,15.86,0,16.286-11.612Z" transform="translate(-5901.985 -4005.243)" fill="#fff" fill-rule="evenodd"/>
          <path id="XMLID_1544_" d="M6060.922,4073,6052,4085.745l15.86,9.913v-.566C6068,4087.728,6065.171,4079.373,6060.922,4073Z" transform="translate(-6030.756 -4063.405)" fill="#fff" fill-rule="evenodd"/>
        </g>
        <g id="XMLID_1539_" transform="translate(148.409 70.425)">
          <path id="XMLID_1542_" d="M6266,4194.342V4152l7.081,4.39v42.2Z" transform="translate(-6256.653 -4152)" fill="#fff" fill-rule="evenodd"/>
          <path id="XMLID_1541_" d="M6331,4312.456V4283l6.939,4.39V4316.7Z" transform="translate(-6312.449 -4264.449)" fill="#fff" fill-rule="evenodd"/>
          <path id="XMLID_1540_" d="M6200,4308.71V4292l6.939,4.39v16.568Z" transform="translate(-6200 -4272.175)" fill="#fff" fill-rule="evenodd"/>
        </g>
      </g>
      <g id="_5" transform="translate(127.875 201.181)">
        <path id="XMLID_1524_" d="M6055,5084.642a3.637,3.637,0,0,1,1.7-2.974l10.763-6.09a.892.892,0,0,1,.991-.141h0a.138.138,0,0,1,.142.141l5.381,3.115-12.745,10.479-5.381-3.116c-.141-.141-.283-.141-.425-.283h0A1.7,1.7,0,0,1,6055,5084.642Z" transform="translate(-6055 -5075.344)" fill-rule="evenodd" fill="url(#linear-gradient-68)"/>
        <path id="XMLID_1523_" d="M6095.7,5108.372l10.763-6.088a3.641,3.641,0,0,0,1.7-2.975h0c-.141-1.274-.85-1.7-1.7-1.274l-10.9,6.09a4.178,4.178,0,0,0-1.558,3.115h0C6094,5108.372,6094.85,5108.939,6095.7,5108.372Z" transform="translate(-6088.477 -5094.685)" fill="#6e0808" fill-rule="evenodd"/>
      </g>
    </g>
  </g>
</svg>
