<svg xmlns="http://www.w3.org/2000/svg" width="40" height="40" viewBox="0 0 40 40">
  <path id="email" d="M574,2267a20,20,0,1,1-20,20A20,20,0,0,1,574,2267Zm0,24.556c-1.821,0-3.648-1.592-4.559-2.28-4.554-3.19-5.923-4.33-6.833-5.012v9.572a2.279,2.279,0,0,0,2.28,2.279h18.226a2.282,2.282,0,0,0,2.28-2.279v-9.572c-.911.682-2.28,1.822-6.833,5.012-.916.688-2.738,2.28-4.559,2.28Zm9.113-13.673H564.89a2.279,2.279,0,0,0-2.28,2.28v1.139c1.821,1.369,1.592,1.369,8.2,6.152.682.458,2.051,1.821,3.19,1.821s2.5-1.363,3.19-1.592c6.6-4.789,6.381-4.789,8.2-6.152v-1.368A2.283,2.283,0,0,0,583.116,2277.884Z" transform="translate(-554 -2267)" fill="#ab0d0d" fill-rule="evenodd"/>
</svg>
