<svg xmlns="http://www.w3.org/2000/svg" width="40" height="40" viewBox="0 0 40 40">
  <path id="instagram-white" d="M20,1712a20,20,0,1,1-20,20A20,20,0,0,1,20,1712Zm0,15.327A4.676,4.676,0,1,0,24.673,1732,4.67,4.67,0,0,0,20,1727.327Zm0,7.716A3.041,3.041,0,1,1,23.038,1732,3.048,3.048,0,0,1,20,1735.043Zm5.955-7.905a1.089,1.089,0,1,1-1.089-1.089A1.087,1.087,0,0,1,25.955,1727.138Zm3.1,1.108a5.043,5.043,0,0,0-5.293-5.293c-1.5-.087-6.014-.087-7.518,0a5.425,5.425,0,0,0-3.822,1.466,5.421,5.421,0,0,0-1.471,3.822c-.087,1.5-.087,6.014,0,7.518a5.392,5.392,0,0,0,1.471,3.822,5.443,5.443,0,0,0,3.822,1.471c1.5.087,6.014.087,7.518,0a5.4,5.4,0,0,0,3.822-1.471,5.434,5.434,0,0,0,1.471-3.822C29.139,1734.254,29.139,1729.75,29.052,1728.246Zm-1.945,9.129a3.051,3.051,0,0,1-1.732,1.732c-1.2.479-4.049.368-5.375.368s-4.175.106-5.37-.368a3.073,3.073,0,0,1-1.737-1.732c-.474-1.2-.363-4.045-.363-5.375s-.106-4.175.363-5.37a3.073,3.073,0,0,1,1.737-1.732c1.2-.479,4.045-.368,5.37-.368s4.18-.106,5.375.368a3.051,3.051,0,0,1,1.732,1.732c.479,1.2.368,4.044.368,5.37S27.586,1736.18,27.107,1737.375Z" transform="translate(0 -1712)" fill="#fff" fill-rule="evenodd"/>
</svg>
