<svg xmlns="http://www.w3.org/2000/svg" width="12" height="12" viewBox="0 0 24 24">
  <path id="join" d="M387,399a12,12,0,1,0-12-12A12,12,0,0,0,387,399Zm6.153-8.113-1.335-.015-.017-1.315c-.026-.518-.745-.62-1.027-.273s-.076,1.117-.148,1.591c-.387.017-.785,0-1.175,0a.588.588,0,1,0-.026,1.172c.4.015.8-.015,1.2,0a10.8,10.8,0,0,1,.012,1.2.6.6,0,1,0,1.2.026c.012-.4,0-.826,0-1.222.425,0,1.292.09,1.583-.131A.587.587,0,0,0,393.153,390.887Zm-9.172-3.142a5.45,5.45,0,0,0-1.123.623c-.192.137-.314.244-.483.378a6.361,6.361,0,0,0-.841.9,5.766,5.766,0,0,0-.908,1.722,3.646,3.646,0,0,0-.236,1.44.609.609,0,0,0,1.079.154,6.711,6.711,0,0,1,.983-2.531,4.89,4.89,0,0,1,6.22-1.423c.588.308.742.637,1.175.451a.625.625,0,0,0,.067-1.105c-.192-.122-.34-.224-.55-.335-.119-.061-.489-.23-.573-.291a5.03,5.03,0,0,0,.881-.809,4.225,4.225,0,1,0-6.583-.006l.416.445C383.6,387.439,383.922,387.666,383.98,387.745Zm2.223-6.423a2.978,2.978,0,1,0,.378,5.943,3.126,3.126,0,0,0,1.167-.308,2.973,2.973,0,0,0-1.545-5.635Z" transform="translate(-375 -375)" fill="#dcdcdc" fill-rule="evenodd"/>
</svg>
