<svg xmlns="http://www.w3.org/2000/svg" width="90" height="90" viewBox="0 0 90 90">
  <g id="logo" transform="translate(-740 -740)">
    <path id="Path_1" data-name="Path 1" d="M784.994,740A45,45,0,0,0,740,783.037h13.546v-6.223H758.9l5.983,13.524V764.259h38.6l4.882,15.175,5.038-5.469h3.039v9.071h13.547A45.006,45.006,0,0,0,784.994,740Zm31.448,46.963v3.7h0a31.448,31.448,0,0,1-62.9,0h0v-3.7H740a45.045,45.045,0,0,0,90,0Zm-46.37-17.773v30.854h-5.349l-5.984-12.016v2.633h-.011c0,16.157,10.1,26.234,26.266,26.234s26.255-10.077,26.255-26.234h0v-7.875l-1.987,2.13h-3.554l-3.446-10.592v25.72h-5.193V769.19h-4.619v30.758h-5.29V769.19h-8.3V781.3h5.026v5.027h-5.026v13.62h-5.3V769.19Zm14.922-21.267c14.779,0,27.176,8.928,30.539,20.968H810.28c-3.327-10.975-11.716-16.049-25.286-16.049s-21.971,5.075-25.285,16.049h-5.265C757.818,756.851,770.215,747.923,784.994,747.923Z" transform="translate(0)" fill="#fff" fill-rule="evenodd"/>
  </g>
</svg>
