<svg xmlns="http://www.w3.org/2000/svg" width="232" height="307.48" viewBox="0 0 232 307.48">
  <g id="rd-map-2" transform="translate(0)">
    <path id="Union_1" data-name="Union 1" d="M20,24.573H212a20,20,0,0,1,20,20V287.48a20,20,0,0,1-20,20H20a20,20,0,0,1-20-20V44.573A20,20,0,0,1,20,24.573Z" transform="translate(0 0)" fill="#fff"/>
    <path id="Union_2" data-name="Union 2" d="M-470.032-4679.045v-57a20,20,0,0,1,20-20h79.639l16.362-24.477,16.361,24.477h79.638a20,20,0,0,1,20,20v57Z" transform="translate(470.032 4780.523)"/>
    <text id="Q3_2021" data-name="Q3 2021" transform="translate(60.5 74.447)" fill="#fff" font-size="28" font-family="Montserrat-Bold, Montserrat" font-weight="700"><tspan x="0" y="0">Q3 2021</tspan></text>
    <text id="Public_Pre-Sale_Listing_On_Pancakeswap_Public_Sale" data-name="Public Pre-Sale

Listing OnPancakeswap

Public Sale" transform="translate(116 136.478)" fill="#3b3b3b" font-size="17" font-family="Montserrat-Bold, Montserrat" font-weight="700"><tspan x="-67.396" y="0">Public Pre-Sale</tspan><tspan font-size="7"><tspan x="0" y="11"></tspan></tspan><tspan x="-45.79" y="29">Listing On</tspan><tspan x="-61.659" y="49">Pancakeswap</tspan><tspan font-size="7"><tspan x="0" y="60"></tspan></tspan><tspan x="-49.062" y="78">Public Sale</tspan></text>
    <text id="Start:_August_17_End:_September_30" data-name="Start: August 17
End: September 30" transform="translate(33.5 264.478)" fill="#3b3b3b" font-size="17" font-family="Montserrat-Medium, Montserrat" font-weight="500"><tspan x="0" y="0">Start: August 17</tspan><tspan x="0" y="20">End: September 30</tspan></text>
  </g>
</svg>
