<svg id="rd-map-2-live" xmlns="http://www.w3.org/2000/svg" width="232" height="356.478" viewBox="0 0 232 356.478">
  <path id="Union_1" data-name="Union 1" d="M0,325.478V44.262a20,20,0,0,1,20-20H98.238L116,0l17.762,24.262H212a20,20,0,0,1,20,20V325.478Z" transform="translate(0 0)" fill="#feb4b4"/>
  <text id="Q3_2021" data-name="Q3 2021" transform="translate(60.5 74.447)" font-size="28" font-family="Montserrat-Bold, Montserrat" font-weight="700"><tspan x="0" y="0">Q3 2021</tspan></text>
  <text id="Public_Pre-Sale_Listing_On_Pancakeswap_Public_Sale" data-name="Public Pre-Sale

Listing OnPancakeswap

Public Sale" transform="translate(116 127.478)" fill="#3b3b3b" font-size="17" font-family="Montserrat-Bold, Montserrat" font-weight="700"><tspan x="-67.396" y="0">Public Pre-Sale</tspan><tspan font-size="7"><tspan x="0" y="11"></tspan></tspan><tspan x="-45.79" y="29">Listing On</tspan><tspan x="-61.659" y="49">Pancakeswap</tspan><tspan font-size="7"><tspan x="0" y="60"></tspan></tspan><tspan x="-49.062" y="78">Public Sale</tspan></text>
  <text id="Start:_August_17_End:_September_30" data-name="Start: August 17
End: September 30" transform="translate(33.5 240.477)" fill="#3b3b3b" font-size="17" font-family="Montserrat-Medium, Montserrat" font-weight="500"><tspan x="0" y="0">Start: August 17</tspan><tspan x="0" y="20">End: September 30</tspan></text>
  <rect id="Rectangle_31" data-name="Rectangle 31" width="232" height="62" rx="20" transform="translate(0 294.478)"/>
  <text id="LIVE_NOW" data-name="LIVE NOW" transform="translate(67 328.478)" fill="#fff" font-size="17" font-family="Montserrat-Bold, Montserrat" font-weight="700"><tspan x="0" y="0">LIVE NOW</tspan></text>
</svg>
