<svg xmlns="http://www.w3.org/2000/svg" width="40" height="40" viewBox="0 0 40 40">
  <path id="twitter-black" d="M20,1712a20,20,0,1,1-20,20A20,20,0,0,1,20,1712Zm8.916,15.433c.015.2.015.4.015.6a13.1,13.1,0,0,1-20.155,11.026,10.488,10.488,0,0,0,1.113.053,9.215,9.215,0,0,0,5.709-1.964,4.608,4.608,0,0,1-4.3-3.188,5.713,5.713,0,0,0,.871.068,4.765,4.765,0,0,0,1.209-.155,4.6,4.6,0,0,1-3.686-4.514v-.058a4.59,4.59,0,0,0,2.075.586,4.6,4.6,0,0,1-1.422-6.154,13.076,13.076,0,0,0,9.487,4.814,5.105,5.105,0,0,1-.116-1.055,4.6,4.6,0,0,1,7.963-3.145,9.07,9.07,0,0,0,2.917-1.112,4.6,4.6,0,0,1-2.022,2.535,9.423,9.423,0,0,0,2.651-.711,10.073,10.073,0,0,1-2.308,2.38Z" transform="translate(0 -1712)" fill="#ab0d0d" fill-rule="evenodd"/>
</svg>
