<svg xmlns="http://www.w3.org/2000/svg" width="12" height="12" viewBox="0 0 24 24">
  <path id="whitepaper" d="M387,399a12,12,0,1,0-12-12A12,12,0,0,0,387,399Zm-5.9-15.855v9.335a1.462,1.462,0,0,0,.506,1.009,1.4,1.4,0,0,0,.858.384h7.244a1.534,1.534,0,0,0,1.364-1.393v-6.938c0-.227-.707-.844-.887-1.024l-2.409-2.409c-.125-.125-.346-.419-.553-.419h-4.7a1.561,1.561,0,0,0-.556.143A1.543,1.543,0,0,0,381.1,383.145Zm10.441,9.164a1.534,1.534,0,0,0,1.364-1.4v-6.938c0-.227-.707-.844-.887-1.024l-2.409-2.409c-.125-.125-.346-.416-.553-.416h-4.7a1.56,1.56,0,0,0-.556.14,1.58,1.58,0,0,0-.861,1.161h.922a.556.556,0,0,1,.532-.407h4.527l3.072,3.119v6.723a.558.558,0,0,1-.483.55Zm-7.9-4.617h4.881c.634,0,.538-.908.029-.908h-4.94C383.1,386.785,383.02,387.692,383.643,387.692Zm0,1.879h4.881c.634,0,.538-.908.029-.908h-4.94C383.1,388.664,383.02,389.572,383.643,389.572Zm0,1.879h4.881c.634,0,.538-.908.029-.908h-4.94C383.1,390.543,383.02,391.451,383.643,391.451Zm-1.082-8.864h4.113v1.847a1.646,1.646,0,0,0,1.641,1.638h1.844v6.356a.554.554,0,0,1-.553.553h-7.046a.554.554,0,0,1-.553-.553V383.14A.554.554,0,0,1,382.561,382.587Zm4.9.41v.934c0,1.132.183,1.286,1.286,1.286h.928C388.961,384.5,388.187,383.724,387.463,383Z" transform="translate(-375 -375)" fill="#dcdcdc" fill-rule="evenodd"/>
</svg>
