<svg xmlns="http://www.w3.org/2000/svg" width="620.185" height="332.117" viewBox="0 0 620.185 332.117">
  <g id="why-choose-NFTM-illustration" transform="translate(-1978 -2946)">
    <g id="_1789182969040" transform="translate(1978 2946)">
      <path id="Path_14" data-name="Path 14" d="M2735.243,3167.749c-24.3-20.759-53.723-146.225-154.438-80.869-52.012,33.648-139.838-29.085-212.381-7.414-66.726,19.961-73.227,85.546-66.726,106.875,13,43.115-27.489,49.616-65.129,68.094-59.083,29.085-15.626,131.4,40.149,131.854s393.623-1.027,393.623-1.027,80.983.228,114.631-44.484C2821.245,3292.645,2798.318,3221.471,2735.243,3167.749Z" transform="translate(-2182.049 -3054.259)" fill="#d1756c" fill-rule="evenodd"/>
      <path id="Path_15" data-name="Path 15" d="M5927,3497.254h138.926V3264H5927Z" transform="translate(-5476.575 -3227.729)" fill="#d1756c" fill-rule="evenodd"/>
      <path id="Path_16" data-name="Path 16" d="M5889,3264v233.254h138.926V3264Z" transform="translate(-5442.909 -3227.729)" fill="#c4524c" fill-rule="evenodd"/>
      <path id="Path_17" data-name="Path 17" d="M6092.334,3459.325H5972V3378h120.334Z" transform="translate(-5516.442 -3328.726)" fill="#fbd4d4" fill-rule="evenodd"/>
      <path id="Path_18" data-name="Path 18" d="M6506.559,4802.458H6442V4759h64.559Z" transform="translate(-5932.834 -4552.208)" fill="#fbd4d4" fill-rule="evenodd"/>
      <path id="Path_19" data-name="Path 19" d="M6016,3740.205s20.53-2.509,33.077,9.011,35.93,1.027,45.282,0c16.425-1.825,29.2,3.536,32.964,9.467v17.679H6016Z" transform="translate(-5555.423 -3649.413)" fill="#c4524c" fill-rule="evenodd"/>
      <path id="Path_20" data-name="Path 20" d="M6155.913,3520.6H6155V3493h.912Z" transform="translate(-5678.569 -3430.609)" fill="#d1756c" fill-rule="evenodd"/>
      <path id="Path_21" data-name="Path 21" d="M6451.913,3624.489H6451V3597h.913Z" transform="translate(-5940.807 -3522.747)" fill="#d1756c" fill-rule="evenodd"/>
      <path id="Path_22" data-name="Path 22" d="M6757.8,3569.6h-.8V3542h.8Z" transform="translate(-6211.905 -3474.02)" fill="#d1756c" fill-rule="evenodd"/>
      <path id="Path_23" data-name="Path 23" d="M6190.3,3518.483h-6.615a.736.736,0,0,1-.685-.684h0a.763.763,0,0,1,.685-.8h6.615a.763.763,0,0,1,.685.8h0A.736.736,0,0,1,6190.3,3518.483Z" transform="translate(-5703.376 -3451.872)" fill="#d1756c" fill-rule="evenodd"/>
      <path id="Path_24" data-name="Path 24" d="M6190.3,3541.483h-6.615a.763.763,0,0,1-.685-.8h0a.736.736,0,0,1,.685-.685h6.615a.736.736,0,0,1,.685.685h0A.763.763,0,0,1,6190.3,3541.483Z" transform="translate(-5703.376 -3472.248)" fill="#d1756c" fill-rule="evenodd"/>
      <path id="Path_25" data-name="Path 25" d="M6481.414,3642.369H6474.8a.763.763,0,0,1-.8-.684h0a.763.763,0,0,1,.8-.685h6.616a.736.736,0,0,1,.684.685h0A.736.736,0,0,1,6481.414,3642.369Z" transform="translate(-5961.184 -3561.728)" fill="#d1756c" fill-rule="evenodd"/>
      <path id="Path_26" data-name="Path 26" d="M6481.414,3664.369H6474.8c-.456,0-.8-.228-.8-.684h0a.763.763,0,0,1,.8-.685h6.616a.736.736,0,0,1,.684.685h0A.657.657,0,0,1,6481.414,3664.369Z" transform="translate(-5961.184 -3581.219)" fill="#d1756c" fill-rule="evenodd"/>
      <path id="Path_27" data-name="Path 27" d="M6792.3,3551.369h-6.615a.736.736,0,0,1-.685-.685h0a.658.658,0,0,1,.685-.684h6.615a.605.605,0,0,1,.685.684h0A.658.658,0,0,1,6792.3,3551.369Z" transform="translate(-6236.711 -3481.107)" fill="#d1756c" fill-rule="evenodd"/>
      <path id="Path_28" data-name="Path 28" d="M6792.3,3573.369h-6.615a.736.736,0,0,1-.685-.684h0a.736.736,0,0,1,.685-.685h6.615a.658.658,0,0,1,.685.685h0A.658.658,0,0,1,6792.3,3573.369Z" transform="translate(-6236.711 -3500.598)" fill="#d1756c" fill-rule="evenodd"/>
      <path id="Path_29" data-name="Path 29" d="M6818,4180.862a11.92,11.92,0,1,1,11.862,11.862A11.927,11.927,0,0,1,6818,4180.862Z" transform="translate(-6265.947 -4029.504)" fill="#fbd4d4" fill-rule="evenodd"/>
      <path id="Path_30" data-name="Path 30" d="M6876.25,4188.836a10.856,10.856,0,0,1-10.95,10.835,10.66,10.66,0,0,1-7.3-2.851l7.3-7.984V4178A10.856,10.856,0,0,1,6876.25,4188.836Z" transform="translate(-6301.385 -4037.478)" fill="#c4524c" fill-rule="evenodd"/>
      <path id="Path_31" data-name="Path 31" d="M6853.22,4251.57h-3.878a.3.3,0,0,1-.342-.342h0c0-.113.114-.228.342-.228h3.878c.229,0,.342.115.342.228h0A.3.3,0,0,1,6853.22,4251.57Z" transform="translate(-6293.411 -4102.151)" fill="#d1756c" fill-rule="evenodd"/>
      <path id="Path_32" data-name="Path 32" d="M6560,4180.862a11.862,11.862,0,1,1,11.862,11.862A11.853,11.853,0,0,1,6560,4180.862Z" transform="translate(-6037.375 -4029.504)" fill="#fbd4d4" fill-rule="evenodd"/>
      <path id="Path_33" data-name="Path 33" d="M6579.835,4188.836l6.616,8.555a10.349,10.349,0,0,1-6.616,2.281,10.836,10.836,0,0,1,0-21.671,10.9,10.9,0,0,1,10.836,9.81Z" transform="translate(-6045.348 -4037.478)" fill="#c4524c" fill-rule="evenodd"/>
      <path id="Path_34" data-name="Path 34" d="M6713.966,4291.685h-2.623a.364.364,0,0,1-.343-.342h0a.3.3,0,0,1,.343-.342h2.623a.3.3,0,0,1,.342.342h0A.363.363,0,0,1,6713.966,4291.685Z" transform="translate(-6171.151 -4137.588)" fill="#d1756c" fill-rule="evenodd"/>
      <path id="Path_35" data-name="Path 35" d="M6818,4467.862a11.92,11.92,0,1,1,11.862,11.862A11.854,11.854,0,0,1,6818,4467.862Z" transform="translate(-6265.947 -4283.769)" fill="#fbd4d4" fill-rule="evenodd"/>
      <path id="Path_36" data-name="Path 36" d="M6876.25,4475.836a10.929,10.929,0,0,1-10.95,10.835,10.66,10.66,0,0,1-7.3-2.851l7.3-7.984V4465A10.856,10.856,0,0,1,6876.25,4475.836Z" transform="translate(-6301.385 -4291.742)" fill="#c4524c" fill-rule="evenodd"/>
      <path id="Path_37" data-name="Path 37" d="M6853.22,4537.685h-3.878a.3.3,0,0,1-.342-.342h0a.364.364,0,0,1,.342-.342h3.878a.364.364,0,0,1,.342.342h0A.3.3,0,0,1,6853.22,4537.685Z" transform="translate(-6293.411 -4355.53)" fill="#d1756c" fill-rule="evenodd"/>
      <path id="Path_38" data-name="Path 38" d="M6560,4467.862a11.862,11.862,0,0,1,23.725,0,11.862,11.862,0,0,1-23.725,0Z" transform="translate(-6037.375 -4283.769)" fill="#fbd4d4" fill-rule="evenodd"/>
      <path id="Path_39" data-name="Path 39" d="M6590.671,4474.809a10.9,10.9,0,0,0-10.836-9.809,10.836,10.836,0,0,0,0,21.671,10.347,10.347,0,0,0,6.616-2.281l-6.616-8.554Z" transform="translate(-6045.348 -4291.742)" fill="#c4524c" fill-rule="evenodd"/>
      <path id="Path_40" data-name="Path 40" d="M6713.966,4578.57h-2.623c-.229,0-.343-.114-.343-.228h0a.3.3,0,0,1,.343-.342h2.623a.3.3,0,0,1,.342.342h0C6714.308,4578.457,6714.194,4578.57,6713.966,4578.57Z" transform="translate(-6171.151 -4391.853)" fill="#d1756c" fill-rule="evenodd"/>
      <path id="Path_41" data-name="Path 41" d="M6524.2,4841.017H6465V4806h.685v34.333H6524.2Z" transform="translate(-5953.21 -4593.848)" fill="#c4524c" fill-rule="evenodd"/>
      <path id="Path_42" data-name="Path 42" d="M6510.942,4880.626c-7.3-5.7-14.942,0-14.942,0v9.923h54.179V4865C6535.465,4865.343,6518.128,4886.443,6510.942,4880.626Z" transform="translate(-5980.675 -4646.118)" fill="#c4524c" fill-rule="evenodd"/>
      <path id="Path_43" data-name="Path 43" d="M6496.571,4820.255h25.321a.638.638,0,0,0,.57-.684.539.539,0,0,0-.57-.571h-25.321a.539.539,0,0,0-.571.571A.638.638,0,0,0,6496.571,4820.255Z" transform="translate(-5980.675 -4605.365)" fill="#d1756c" fill-rule="evenodd"/>
      <path id="Path_44" data-name="Path 44" d="M6496.571,4846.255h25.321a.539.539,0,0,0,.57-.57.639.639,0,0,0-.57-.685h-25.321a.639.639,0,0,0-.571.685A.539.539,0,0,0,6496.571,4846.255Z" transform="translate(-5980.675 -4628.399)" fill="#d1756c" fill-rule="evenodd"/>
      <path id="Path_45" data-name="Path 45" d="M6496.457,4871.255h16.767a.491.491,0,0,0,.457-.457v-.228a.522.522,0,0,0-.457-.57h-16.767a.522.522,0,0,0-.457.57v.228A.491.491,0,0,0,6496.457,4871.255Z" transform="translate(-5980.675 -4650.548)" fill="#d1756c" fill-rule="evenodd"/>
      <path id="Path_46" data-name="Path 46" d="M4212.025,3232.52H4022V2946h190.025Z" transform="translate(-3788.86 -2946)" fill="#c4524c" fill-rule="evenodd"/>
      <path id="Path_47" data-name="Path 47" d="M4335.955,3257.406H4183V3087h152.955Z" transform="translate(-3931.496 -3070.917)" fill="#fbd4d4" fill-rule="evenodd"/>
      <path id="Path_48" data-name="Path 48" d="M4212,4845.489a27.489,27.489,0,1,1,27.488,27.488A27.5,27.5,0,0,1,4212,4845.489Z" transform="translate(-3957.189 -4604.479)" fill="#fbd4d4" fill-rule="evenodd"/>
      <path id="Path_49" data-name="Path 49" d="M4295.537,4878.269a23.269,23.269,0,1,0-23.269,23.269,23.746,23.746,0,0,0,14.144-4.791l-14.144-18.478,21.672,8.326A22.535,22.535,0,0,0,4295.537,4878.269Z" transform="translate(-3989.969 -4637.258)" fill="#c4524c" fill-rule="evenodd"/>
      <path id="Path_50" data-name="Path 50" d="M5033,4845.489a27.546,27.546,0,1,1,27.6,27.488A27.528,27.528,0,0,1,5033,4845.489Z" transform="translate(-4684.545 -4604.479)" fill="#fbd4d4" fill-rule="evenodd"/>
      <path id="Path_51" data-name="Path 51" d="M5094.269,4855a23.311,23.311,0,0,0-16.653,39.579l16.653-16.311,21.671,8.326a22.466,22.466,0,0,0,1.482-8.326A23.2,23.2,0,0,0,5094.269,4855Z" transform="translate(-4718.211 -4637.258)" fill="#c4524c" fill-rule="evenodd"/>
      <path id="Path_52" data-name="Path 52" d="M5162.608,4956h-9.923a.658.658,0,0,0-.685.685h0a.737.737,0,0,0,.685.685h9.923a.737.737,0,0,0,.685-.685h0A.658.658,0,0,0,5162.608,4956Z" transform="translate(-4789.972 -4726.738)" fill="#d1756c" fill-rule="evenodd"/>
      <path id="Path_53" data-name="Path 53" d="M5162.608,4975h-9.923a.736.736,0,0,0-.685.685.763.763,0,0,0,.685.8h9.923a.763.763,0,0,0,.685-.8A.736.736,0,0,0,5162.608,4975Z" transform="translate(-4789.972 -4743.572)" fill="#d1756c" fill-rule="evenodd"/>
      <path id="Path_54" data-name="Path 54" d="M5156.791,4995h-4.106a.684.684,0,1,0,0,1.369h4.106a.684.684,0,1,0,0-1.369Z" transform="translate(-4789.972 -4761.29)" fill="#d1756c" fill-rule="evenodd"/>
      <path id="Path_55" data-name="Path 55" d="M4338.607,4956H4328.8c-.456,0-.8.229-.8.685h0a.763.763,0,0,0,.8.685h9.809a.763.763,0,0,0,.8-.685h0C4339.406,4956.229,4339.064,4956,4338.607,4956Z" transform="translate(-4059.958 -4726.738)" fill="#d1756c" fill-rule="evenodd"/>
      <path id="Path_56" data-name="Path 56" d="M4338.607,4975H4328.8a.763.763,0,0,0-.8.685.78.78,0,0,0,.8.8h9.809a.779.779,0,0,0,.8-.8A.763.763,0,0,0,4338.607,4975Z" transform="translate(-4059.958 -4743.572)" fill="#d1756c" fill-rule="evenodd"/>
      <path id="Path_57" data-name="Path 57" d="M4332.9,4995H4328.8a.692.692,0,1,0,0,1.369h4.106a.684.684,0,1,0,0-1.369Z" transform="translate(-4059.958 -4761.29)" fill="#d1756c" fill-rule="evenodd"/>
      <path id="Path_58" data-name="Path 58" d="M4303,3721.487h16.083V3621H4303Z" transform="translate(-4037.809 -3544.009)" fill="#c4524c" fill-rule="evenodd"/>
      <path id="Path_59" data-name="Path 59" d="M4534,3503.546h16.2V3375H4534Z" transform="translate(-4242.461 -3326.068)" fill="#c4524c" fill-rule="evenodd"/>
      <path id="Path_60" data-name="Path 60" d="M4787,3910.193h16.2V3834H4787Z" transform="translate(-4466.604 -3732.715)" fill="#c4524c" fill-rule="evenodd"/>
      <path id="Path_61" data-name="Path 61" d="M5034,3637.323h16.083V3526H5034Z" transform="translate(-4685.431 -3459.845)" fill="#c4524c" fill-rule="evenodd"/>
      <path id="Path_62" data-name="Path 62" d="M5281,3965v61.251h16.083V3965Z" transform="translate(-4904.258 -3848.772)" fill="#c4524c" fill-rule="evenodd"/>
      <path id="Path_63" data-name="Path 63" d="M5051.056,3399h-13.573a1.373,1.373,0,1,0,0,2.738h13.573a1.373,1.373,0,1,0,0-2.738Z" transform="translate(-4687.203 -3347.331)" fill="#d1756c" fill-rule="evenodd"/>
      <path id="Path_64" data-name="Path 64" d="M5040.563,3444h-3.08a1.415,1.415,0,0,0-1.483,1.369,1.51,1.51,0,0,0,1.483,1.483h3.08a1.415,1.415,0,0,0,1.369-1.483A1.318,1.318,0,0,0,5040.563,3444Z" transform="translate(-4687.203 -3387.198)" fill="#d1756c" fill-rule="evenodd"/>
      <path id="Path_65" data-name="Path 65" d="M4557.17,3207h-13.687a1.415,1.415,0,0,0-1.483,1.369,1.51,1.51,0,0,0,1.483,1.483h13.687a1.494,1.494,0,0,0,1.369-1.483A1.387,1.387,0,0,0,4557.17,3207Z" transform="translate(-4249.549 -3177.23)" fill="#d1756c" fill-rule="evenodd"/>
      <path id="Path_66" data-name="Path 66" d="M4546.563,3252h-3.08a1.415,1.415,0,0,0-1.483,1.369h0a1.51,1.51,0,0,0,1.483,1.483h3.08a1.415,1.415,0,0,0,1.369-1.483h0A1.318,1.318,0,0,0,4546.563,3252Z" transform="translate(-4249.549 -3217.098)" fill="#d1756c" fill-rule="evenodd"/>
      <path id="Path_67" data-name="Path 67" d="M4801.057,3703h-13.688a1.369,1.369,0,0,0,0,2.738h13.688a1.369,1.369,0,0,0,0-2.738Z" transform="translate(-4465.718 -3616.656)" fill="#d1756c" fill-rule="evenodd"/>
      <path id="Path_68" data-name="Path 68" d="M4790.563,3748h-3.194a1.318,1.318,0,0,0-1.368,1.369h0a1.318,1.318,0,0,0,1.368,1.369h3.194a1.387,1.387,0,0,0,1.369-1.369h0A1.387,1.387,0,0,0,4790.563,3748Z" transform="translate(-4465.718 -3656.523)" fill="#d1756c" fill-rule="evenodd"/>
      <path id="Path_69" data-name="Path 69" d="M5294.17,3834h-13.687a1.51,1.51,0,0,0-1.483,1.483,1.494,1.494,0,0,0,1.483,1.369h13.687a1.472,1.472,0,0,0,1.369-1.369A1.494,1.494,0,0,0,5294.17,3834Z" transform="translate(-4902.486 -3732.715)" fill="#d1756c" fill-rule="evenodd"/>
      <path id="Path_70" data-name="Path 70" d="M5283.563,3879h-3.08a1.51,1.51,0,0,0-1.483,1.483,1.494,1.494,0,0,0,1.483,1.369h3.08a1.494,1.494,0,0,0,1.483-1.369A1.51,1.51,0,0,0,5283.563,3879Z" transform="translate(-4902.486 -3772.582)" fill="#d1756c" fill-rule="evenodd"/>
      <path id="Path_71" data-name="Path 71" d="M2580,3898v78.245h138.926V3898Z" transform="translate(-2511.336 -3789.414)" fill="#d1756c" fill-rule="evenodd"/>
      <path id="Path_72" data-name="Path 72" d="M2620,3898v78.245h138.812V3898Z" transform="translate(-2546.773 -3789.414)" fill="#c4524c" fill-rule="evenodd"/>
      <path id="Path_73" data-name="Path 73" d="M2758.093,4005a25.15,25.15,0,1,0,25.094,25.207A25.118,25.118,0,0,0,2758.093,4005Z" transform="translate(-2646.885 -3884.21)" fill="#fbd4d4" fill-rule="evenodd"/>
      <path id="Path_74" data-name="Path 74" d="M3356.256,4103h-41.518a2.636,2.636,0,0,0-2.738,2.738h0a2.7,2.7,0,0,0,2.738,2.737h41.518a2.7,2.7,0,0,0,2.737-2.737h0A2.636,2.636,0,0,0,3356.256,4103Z" transform="translate(-3159.843 -3971.032)" fill="#fbd4d4" fill-rule="evenodd"/>
      <path id="Path_75" data-name="Path 75" d="M3356.256,4202h-41.518a2.636,2.636,0,0,0-2.738,2.738h0a2.7,2.7,0,0,0,2.738,2.737h41.518a2.7,2.7,0,0,0,2.737-2.737h0A2.636,2.636,0,0,0,3356.256,4202Z" transform="translate(-3159.843 -4058.74)" fill="#fbd4d4" fill-rule="evenodd"/>
      <path id="Path_76" data-name="Path 76" d="M3356.256,4301h-41.518a2.636,2.636,0,0,0-2.738,2.738,2.7,2.7,0,0,0,2.738,2.737h41.518a2.7,2.7,0,0,0,2.737-2.737A2.636,2.636,0,0,0,3356.256,4301Z" transform="translate(-3159.843 -4146.448)" fill="#fbd4d4" fill-rule="evenodd"/>
      <path id="Path_77" data-name="Path 77" d="M2751,4043.927h23.04V4021A23.025,23.025,0,0,0,2751,4043.927Z" transform="translate(-2662.831 -3898.385)" fill="#c4524c" fill-rule="evenodd"/>
      <path id="Path_78" data-name="Path 78" d="M2796.967,4229H2751a23.025,23.025,0,0,0,23.04,22.926h0A22.927,22.927,0,0,0,2796.967,4229Z" transform="translate(-2662.831 -4082.66)" fill="#c4524c" fill-rule="evenodd"/>
      <path id="Path_79" data-name="Path 79" d="M2810.8,4119h-12.433a1.259,1.259,0,1,0,0,2.509H2810.8a1.255,1.255,0,0,0,0-2.509Z" transform="translate(-2703.584 -3985.207)" fill="#d1756c" fill-rule="evenodd"/>
      <path id="Path_80" data-name="Path 80" d="M2801.22,4160h-2.852a1.3,1.3,0,0,0-1.369,1.255,1.318,1.318,0,0,0,1.369,1.369h2.852a1.3,1.3,0,0,0,1.254-1.369A1.266,1.266,0,0,0,2801.22,4160Z" transform="translate(-2703.584 -4021.531)" fill="#d1756c" fill-rule="evenodd"/>
      <path id="Path_81" data-name="Path 81" d="M2973.688,4278h-12.433a1.266,1.266,0,0,0-1.255,1.255,1.3,1.3,0,0,0,1.255,1.369h12.433a1.318,1.318,0,0,0,1.369-1.369A1.3,1.3,0,0,0,2973.688,4278Z" transform="translate(-2847.993 -4126.071)" fill="#d1756c" fill-rule="evenodd"/>
      <path id="Path_82" data-name="Path 82" d="M2964.106,4319h-2.852a1.3,1.3,0,0,0-1.255,1.369h0a1.266,1.266,0,0,0,1.255,1.254h2.852a1.266,1.266,0,0,0,1.255-1.254h0A1.3,1.3,0,0,0,2964.106,4319Z" transform="translate(-2847.993 -4162.395)" fill="#d1756c" fill-rule="evenodd"/>
      <path id="Path_83" data-name="Path 83" d="M2495,4706v79.956h138.812V4706Z" transform="translate(-2436.031 -4505.253)" fill="#d1756c" fill-rule="evenodd"/>
      <path id="Path_84" data-name="Path 84" d="M2534,4706v79.956h138.812V4706Z" transform="translate(-2470.582 -4505.253)" fill="#c4524c" fill-rule="evenodd"/>
      <path id="Path_85" data-name="Path 85" d="M2647,4840.094a25.093,25.093,0,1,1,25.093,25.093A25.168,25.168,0,0,1,2647,4840.094Z" transform="translate(-2570.694 -4601.821)" fill="#fbd4d4" fill-rule="evenodd"/>
      <path id="Path_86" data-name="Path 86" d="M3228.738,4917.476h41.632a2.7,2.7,0,0,0,2.738-2.738,2.776,2.776,0,0,0-2.738-2.737h-41.632a2.776,2.776,0,0,0-2.738,2.737A2.7,2.7,0,0,0,3228.738,4917.476Z" transform="translate(-3083.653 -4687.757)" fill="#fbd4d4" fill-rule="evenodd"/>
      <path id="Path_87" data-name="Path 87" d="M3270.369,5011h-41.632a2.738,2.738,0,1,0,0,5.475h41.632a2.738,2.738,0,1,0,0-5.475Z" transform="translate(-3083.653 -4775.465)" fill="#fbd4d4" fill-rule="evenodd"/>
      <path id="Path_88" data-name="Path 88" d="M3270.369,5110h-41.632a2.776,2.776,0,0,0-2.738,2.737h0a2.776,2.776,0,0,0,2.738,2.738h41.632a2.776,2.776,0,0,0,2.738-2.738h0A2.776,2.776,0,0,0,3270.369,5110Z" transform="translate(-3083.653 -4863.173)" fill="#fbd4d4" fill-rule="evenodd"/>
      <path id="Path_89" data-name="Path 89" d="M2688.926,5036.342,2666,5036v.342a22.927,22.927,0,0,0,22.926,22.926,22.572,22.572,0,0,0,12.319-3.536Z" transform="translate(-2587.526 -4797.614)" fill="#c4524c" fill-rule="evenodd"/>
      <path id="Path_90" data-name="Path 90" d="M2767.688,5102h-12.433a1.3,1.3,0,0,0-1.255,1.369h0a1.266,1.266,0,0,0,1.255,1.255h12.433a1.294,1.294,0,0,0,1.368-1.255h0A1.318,1.318,0,0,0,2767.688,5102Z" transform="translate(-2665.489 -4856.085)" fill="#d1756c" fill-rule="evenodd"/>
      <path id="Path_91" data-name="Path 91" d="M2758.106,5143h-2.852a1.37,1.37,0,0,0-1.255,1.369,1.266,1.266,0,0,0,1.255,1.255h2.852a1.266,1.266,0,0,0,1.255-1.255A1.37,1.37,0,0,0,2758.106,5143Z" transform="translate(-2665.489 -4892.409)" fill="#d1756c" fill-rule="evenodd"/>
      <path id="Path_92" data-name="Path 92" d="M2495,3151v72.429h138.812V3151Z" transform="translate(-2436.031 -3127.618)" fill="#d1756c" fill-rule="evenodd"/>
      <path id="Path_93" data-name="Path 93" d="M2534,3151v72.429h138.812V3151Z" transform="translate(-2470.582 -3127.618)" fill="#c4524c" fill-rule="evenodd"/>
      <path id="Path_94" data-name="Path 94" d="M2647,3283.093a25.093,25.093,0,1,1,25.093,25.094A25.094,25.094,0,0,1,2647,3283.093Z" transform="translate(-2570.694 -3222.413)" fill="#fbd4d4" fill-rule="evenodd"/>
      <path id="Path_95" data-name="Path 95" d="M2688.926,3276a23.067,23.067,0,0,0-11.064,43.229c3.764-6.844,11.064-20.189,11.064-20.189l10.836,20.189a22.762,22.762,0,0,0,12.2-20.189A23.123,23.123,0,0,0,2688.926,3276Z" transform="translate(-2587.526 -3238.36)" fill="#c4524c" fill-rule="evenodd"/>
      <path id="Path_96" data-name="Path 96" d="M3270.369,3355h-41.632a2.776,2.776,0,0,0-2.738,2.738h0a2.776,2.776,0,0,0,2.738,2.738h41.632a2.738,2.738,0,0,0,0-5.475Z" transform="translate(-3083.653 -3308.349)" fill="#fbd4d4" fill-rule="evenodd"/>
      <path id="Path_97" data-name="Path 97" d="M3270.369,3454h-41.632a2.737,2.737,0,1,0,0,5.475h41.632a2.737,2.737,0,1,0,0-5.475Z" transform="translate(-3083.653 -3396.057)" fill="#fbd4d4" fill-rule="evenodd"/>
      <path id="Path_98" data-name="Path 98" d="M3270.369,3553h-41.632a2.737,2.737,0,1,0,0,5.475h41.632a2.737,2.737,0,1,0,0-5.475Z" transform="translate(-3083.653 -3483.765)" fill="#fbd4d4" fill-rule="evenodd"/>
      <path id="Path_99" data-name="Path 99" d="M2767.688,3382h-12.433a1.255,1.255,0,0,0,0,2.509h12.433a1.259,1.259,0,1,0,0-2.509Z" transform="translate(-2665.489 -3332.27)" fill="#d1756c" fill-rule="evenodd"/>
      <path id="Path_100" data-name="Path 100" d="M2758.106,3423h-2.852a1.266,1.266,0,0,0-1.255,1.255h0a1.266,1.266,0,0,0,1.255,1.255h2.852a1.266,1.266,0,0,0,1.255-1.255h0A1.266,1.266,0,0,0,2758.106,3423Z" transform="translate(-2665.489 -3368.593)" fill="#d1756c" fill-rule="evenodd"/>
      <path id="Path_101" data-name="Path 101" d="M4034,4248s16.2,16.653,17,23.04c.684,6.273-7.756,16.083-7.756,16.083Z" transform="translate(-3799.491 -4099.493)" fill="#201e1e" fill-rule="evenodd"/>
      <path id="Path_102" data-name="Path 102" d="M3803.786,5746.174s-.57,8.9-2.281,9.011c-.228.114-8.669.114-8.669.114l-10.836-.114s0-2.623,3.194-3.194,8.44-2.737,10.38-6.958C3797.626,5740.7,3803.786,5746.174,3803.786,5746.174Z" transform="translate(-3576.235 -5424.295)" fill="#201e1e" fill-rule="evenodd"/>
      <path id="Path_103" data-name="Path 103" d="M4014.9,5746.174s-.57,8.9-2.281,9.011c-.228.114-8.783.114-8.783.114l-10.836-.114a3.628,3.628,0,0,1,3.308-3.194c3.194-.57,8.441-2.737,10.38-6.958C4008.741,5740.7,4014.9,5746.174,4014.9,5746.174Z" transform="translate(-3763.168 -5424.295)" fill="#201e1e" fill-rule="evenodd"/>
      <path id="Path_104" data-name="Path 104" d="M3868,4827.573s2.852,18.136,13.345,50.3c10.608,32.165,12.091,46.195,12.091,46.195a55.658,55.658,0,0,0,5.817.342,39.4,39.4,0,0,0,5.475-.684s.114-35.245-4.791-51.442c-4.791-16.2-1.027-58.285-1.027-58.285Z" transform="translate(-3652.426 -4600.935)" fill="#5e5454" fill-rule="evenodd"/>
      <path id="Path_105" data-name="Path 105" d="M3818.957,4822a450.976,450.976,0,0,0,4.334,60.909c4.791,33.534,3.194,47.791,3.194,47.791s3.878.685,5.247.8c1.483,0,6.045-.342,6.045-.342s6.73-33.648,4.791-50.415,9.353-57.6,9.353-57.6Z" transform="translate(-3608.971 -4608.022)" fill="#201e1e" fill-rule="evenodd"/>
      <path id="Path_106" data-name="Path 106" d="M3910.117,4156.573l-5.361,3.878-7.756-1.6c.114-.684.57-3.65,1.14-6.273v-.456c.457-2.281.8-4.22.8-4.22l7.186-3.536,2.737-1.369c-.114.114-.228,2.509-.342,2.852A23.252,23.252,0,0,0,3910.117,4156.573Z" transform="translate(-3678.118 -4006.469)" fill="#fc9490" fill-rule="evenodd"/>
      <path id="Path_107" data-name="Path 107" d="M3874.536,4222.531c.114,0,10.494-3.08,11.634-2.738s1.711,2.509,1.711,2.509L3871,4226.181S3872.369,4223.443,3874.536,4222.531Z" transform="translate(-3655.083 -4074.48)" fill="#5e5454" fill-rule="evenodd"/>
      <path id="Path_108" data-name="Path 108" d="M3841.374,4311.034c-1.825,7.985-30.91,8.9-38.438,1.711-.913-.913-.913-4.676-.571-9.923.571-10.151,2.624-25.321,2.738-33.077a59.883,59.883,0,0,1,1.255-11.178,96.266,96.266,0,0,1,3.65-13.231s14.257-4.562,16.881-3.878C3839.777,4245.221,3843.085,4303.049,3841.374,4311.034Z" transform="translate(-3594.09 -4093.634)" fill="#5e5454" fill-rule="evenodd"/>
      <path id="Path_109" data-name="Path 109" d="M3804,4424.739c.57-10.151,2.623-25.322,2.738-33.078a59.887,59.887,0,0,1,1.255-11.178l8.554-1.483S3824.873,4413.218,3804,4424.739Z" transform="translate(-3595.726 -4215.551)" fill="#5e5454" fill-rule="evenodd"/>
      <path id="Path_110" data-name="Path 110" d="M3825.778,4645.9a2.1,2.1,0,0,1-.684,2.4c-1.255.912-2.053,2.4-1.711,3.536.228,1.141,2.966,2.966,3.878,2.623.912-.228,2.852-1.711,2.624-2.281s1.255-5.132-1.027-6.957C3826.576,4643.5,3825.778,4645.9,3825.778,4645.9Z" transform="translate(-3612.827 -4450.855)" fill="#fc9490" fill-rule="evenodd"/>
      <path id="Path_111" data-name="Path 111" d="M3734.219,4258s-8.441,1.6-15.056,11.406-11.064,17-9.809,20.531,12.433,15.854,14.372,15.854c1.825,0,5.019-1.369,5.133-4.562,0,0-7.87-11.749-6.273-13.573.684-.685,10.152-8.441,11.52-5.019C3736.386,4288.455,3734.219,4258,3734.219,4258Z" transform="translate(-3511.686 -4108.353)" fill="#201e1e" fill-rule="evenodd"/>
      <path id="Path_112" data-name="Path 112" d="M3916.923,4156.6c-1.6,3.08-7.528,5.7-9.923,6.616v-.457c.457-2.281.8-4.221.8-4.221l7.186-3.536C3916.581,4155,3917.494,4155.342,3916.923,4156.6Z" transform="translate(-3686.977 -4017.101)" fill="#fca56b" fill-rule="evenodd"/>
      <path id="Path_113" data-name="Path 113" d="M3883.089,4051.371s10.722,3.308,12.661-3.308c2.053-6.729,4.676-10.836-2.053-13.231s-8.783-.228-10.037,1.825C3882.519,4038.709,3880.466,4050.344,3883.089,4051.371Z" transform="translate(-3664.664 -3909.707)" fill="#fc9490" fill-rule="evenodd"/>
      <path id="Path_114" data-name="Path 114" d="M3894.137,4007.871s.684,7.756,2.281,7.414,3.08-.571,2.851,1.71c-.228,2.4-2.509,5.019,2.509,5.475,4.9.456,12.091-12.319,10.722-14.828C3908.509,4000.685,3888.434,3999.316,3894.137,4007.871Z" transform="translate(-3674.685 -3881.491)" fill="#201e1e" fill-rule="evenodd"/>
      <path id="Path_115" data-name="Path 115" d="M2217,5637l3.308,13.688h4.9l.114-13.688Z" transform="translate(-2189.74 -5330.063)" fill="#fc9490" fill-rule="evenodd"/>
      <path id="Path_116" data-name="Path 116" d="M2576,5627.825l9.239,13.117,3.65-4.677L2583.3,5626Z" transform="translate(-2507.792 -5320.318)" fill="#fc9490" fill-rule="evenodd"/>
      <path id="Path_117" data-name="Path 117" d="M2022.255,4048.406a9.655,9.655,0,0,0-5.133-.912,1.813,1.813,0,0,1,1.027-.57,7.9,7.9,0,0,0-2.737.8c-12.2-4.676-14.144,13.117-13.8,17.337.228,4.106-4.106,5.475-10.494,8.782-11.976,6.273-13.117,14.6-13.117,14.6.114,0,.228.114.342.228.57-1.026,1.825-2.965,2.852-3.194,0,0-1.255,2.624-1.711,3.992,3.65,2.738,10.266,8.783,14.942,13a9.373,9.373,0,0,1,.228-2.624l.57,3.422c2.509,2.281,4.22,3.878,4.22,3.878-.228-3.308,15.17-21.1,23.268-26.348,2.053-2.966,2.737-8.1,2.737-8.441a25.328,25.328,0,0,1-1.6,7.642C2030.7,4073.614,2026.7,4050.916,2022.255,4048.406Z" transform="translate(-1978 -3921.343)" fill="#201e1e" fill-rule="evenodd"/>
      <path id="Path_118" data-name="Path 118" d="M2277.367,4252.977s-3.878,2.053-6.844,1.254c-2.851-.8-4.677-4.334-4.562-4.334,1.141-.342,1.483-1.939,1.483-8.9l.57.114,8.9,1.825s-.228,2.737-.228,5.475C2276.683,4250.581,2276.911,4252.749,2277.367,4252.977Z" transform="translate(-2233.112 -4093.292)" fill="#fc9490" fill-rule="evenodd"/>
      <path id="Path_119" data-name="Path 119" d="M2277,4069.318a7.267,7.267,0,0,1,10.037-.228S2283.73,4068.52,2277,4069.318Z" transform="translate(-2242.896 -3939.289)" fill="#e37970" fill-rule="evenodd"/>
      <path id="Path_120" data-name="Path 120" d="M2292.9,4243.825s-.228,2.738-.228,5.476c-5.019-.229-7.642-4.791-8.669-7.3Z" transform="translate(-2249.097 -4094.177)" fill="#ff8585" fill-rule="evenodd"/>
      <path id="Path_121" data-name="Path 121" d="M2249.574,4090.193a24.788,24.788,0,0,1-3.194-7.642c-.456-2.623.8-11.976,10.265-10.608a12.871,12.871,0,0,1,5.361,1.939c2.053,1.483,5.019,4.448,1.711,12.661l-.912,2.737Z" transform="translate(-2215.698 -3943.398)" fill="#201e1e" fill-rule="evenodd"/>
      <path id="Path_122" data-name="Path 122" d="M2279.985,4885l-4.791.115-5.133.114a102.473,102.473,0,0,1-18.592-34.447,7.392,7.392,0,0,0-.456-1.483c-3.65-10.721-11.178-24.066-15.17-36.157-.684-1.939-1.255-3.764-1.825-5.475a8.4,8.4,0,0,0-.457-1.6A139.273,139.273,0,0,1,2229,4782l28.857.228A540.786,540.786,0,0,0,2279.985,4885Z" transform="translate(-2200.371 -4572.584)" fill="#5e5454" fill-rule="evenodd"/>
      <path id="Path_123" data-name="Path 123" d="M2158.184,4348.3c-.114,13.8,1.939,19.618,1.939,19.618a38.923,38.923,0,0,1-27.032,1.711c-.114-.114-12.091-2.852-12.091-2.852.228-.57,2.4-9.809,2.624-10.265,3.079-6.616,5.475-9.582,5.817-11.635a43.346,43.346,0,0,0,.342-11.52,85.815,85.815,0,0,0-3.536-18.022,86.642,86.642,0,0,0,11.976-3.992,9.343,9.343,0,0,0,6.387,2.281c2.852,0,3.764-1.254,3.65-2.624,3.194,1.711,5.589,3.308,5.589,3.308,2.737,4.677,8.1,9.125,8.44,16.2C2162.4,4332.215,2158.184,4347.956,2158.184,4348.3Z" transform="translate(-2104.689 -4155.308)" fill="#fbd4d4" fill-rule="evenodd"/>
      <path id="Path_124" data-name="Path 124" d="M2153.7,4466.731c-1.255,1.71-3.65,12.547-9.7,13.916,3.08-7.642,5.475-11.064,5.817-13.459a58.224,58.224,0,0,0,.342-13.345c2.053-3.536,3.536-5.931,3.536-5.931.228-.57,3.193-9.923,4.22-1.6C2158.828,4454.755,2155.178,4464.678,2153.7,4466.731Z" transform="translate(-2125.066 -4272.144)" fill="#f2564b" fill-rule="evenodd"/>
      <path id="Path_125" data-name="Path 125" d="M2283.785,4123.7s-11.862.114-11.862-7.3c0-7.3-1.6-12.318,6.045-12.774,7.528-.457,9.011,2.4,9.581,4.9C2288.233,4110.924,2286.865,4123.47,2283.785,4123.7Z" transform="translate(-2238.275 -3971.542)" fill="#fc9490" fill-rule="evenodd"/>
      <path id="Path_126" data-name="Path 126" d="M2257.276,4091.879c-1.825-2.281-3.193-1.825-3.992-1.141-2.509-3.764-10.608,1.711-10.608,1.711a14.276,14.276,0,0,1-4.677,8.44s2.167,1.255,7.186,0c3.878-1.026,6.73-6.615,7.756-8.9a8.463,8.463,0,0,1,2.737,3.422c.57,1.939.8,5.817,1.939,5.7C2257.618,4101.118,2260.128,4095.187,2257.276,4091.879Z" transform="translate(-2208.344 -3958.998)" fill="#201e1e" fill-rule="evenodd"/>
      <path id="Path_127" data-name="Path 127" d="M2238.97,5750a12.344,12.344,0,0,1-.57,5.589s-.8,3.65,2.738,3.764c3.65,0,4.448-.342,4.106-2.509-.456-2.281-1.141-6.045-1.141-6.045Z" transform="translate(-2208.63 -5430.174)" fill="#fc9490" fill-rule="evenodd"/>
      <path id="Path_128" data-name="Path 128" d="M2243.2,5803.589h-7.414c-.457-1.825.228-5.475.228-5.475,4.106,3.878,6.615-.114,6.615-.114C2243.31,5799.711,2243.2,5803.589,2243.2,5803.589Z" transform="translate(-2206.24 -5472.699)" fill="#201e1e" fill-rule="evenodd"/>
      <path id="Path_129" data-name="Path 129" d="M2659.573,5727.178s-6.616-7.414-8.669-11.178l-4.9,2.509,10.95,10.266,2.624-.343Z" transform="translate(-2569.808 -5400.052)" fill="#fc9490" fill-rule="evenodd"/>
      <path id="Path_130" data-name="Path 130" d="M2653.442,5750.432h-9.125a13.518,13.518,0,0,1-2.509-4.106,5.053,5.053,0,0,0-2.966-2.053v6.159H2636.9l-1.711-6.5c-1.255-2.167-.342-4.22.456-5.931,1.026,0,3.764.685,8.669,6.273a6.083,6.083,0,0,0,5.133,2.4v.114A7.275,7.275,0,0,1,2653.442,5750.432Z" transform="translate(-2559.685 -5419.543)" fill="#201e1e" fill-rule="evenodd"/>
      <path id="Path_131" data-name="Path 131" d="M2409.73,4319.668s-7.756,4.449-10.607,5.7c-.913.457-2.738,1.255-4.562,2.167-1.141.457-2.281,1.026-3.194,1.482a4.159,4.159,0,0,1-4.791-1.026c-4.22-5.019-15.17-15.626-26.462-17H2360l.114.114c.684,1.6,6.843,17,6.958,20.3.228,3.422.913,56.231.913,56.231s-.456,2.4,4.22,1.483c4.676-1.026,5.817-2.053,5.817-2.053s-4.448-32.621-3.193-43.913a26.763,26.763,0,0,0-.457-7.3,60.752,60.752,0,0,0,14.942,6.045,75.6,75.6,0,0,0,7.756-4.22,57.019,57.019,0,0,0,6.5-5.247,94.58,94.58,0,0,0,7.414-8.554Z" transform="translate(-2316.429 -4155.308)" fill="#5e5454" fill-rule="evenodd"/>
      <path id="Path_132" data-name="Path 132" d="M2310.632,5047.237l-5.133.114a102.465,102.465,0,0,1-18.592-34.446,7.381,7.381,0,0,0-.456-1.483c-3.65-10.721-11.178-24.066-15.17-36.157-.684-1.939-1.255-3.764-1.825-5.475a8.4,8.4,0,0,0-.457-1.6l4.334-3.194s12.661,20.645,16.653,40.035C2293.409,5021.916,2307.1,5042.219,2310.632,5047.237Z" transform="translate(-2235.808 -4734.711)" fill="#201e1e" fill-rule="evenodd"/>
      <path id="Path_133" data-name="Path 133" d="M2139.014,4964.335c.114,9.467-.342,31.138-1.6,40.149h-4.562c-2.509,0-3.764-.114-3.764-.114-3.079-15.626-5.247-28.515-6.843-39.693-1.369-9.125-2.51-16.995-3.422-23.725s-1.483-12.432-1.711-17.223a15.261,15.261,0,0,1-.114-2.281V4919.4l24.865-2.4C2141.637,4933.539,2139.014,4958.86,2139.014,4964.335Z" transform="translate(-2101.146 -4692.187)" fill="#5e5454" fill-rule="evenodd"/>
      <path id="Path_134" data-name="Path 134" d="M2133.74,5056.755c-2.51,0-3.764-.114-3.764-.114-3.079-15.626-5.247-28.515-6.844-39.692-1.369-9.125-2.509-17-3.422-23.725s-1.483-12.433-1.711-17.223l9.125,5.361s-5.817,2.053-3.65,17.565C2125.756,5014.553,2130.661,5054.474,2133.74,5056.755Z" transform="translate(-2102.031 -4744.457)" fill="#201e1e" fill-rule="evenodd"/>
      <path id="Path_135" data-name="Path 135" d="M2091.47,4389.28s-1.711,6.387-7.756,5.588S2069,4390.42,2069,4390.42s2.624-8.212,5.817-19.048c3.878-13,8.783-29.77,10.95-40.377a50.335,50.335,0,0,0,1.255-7.187l5.133-9.809s7.414,16.881,7.87,21.1C2100.367,4339.321,2091.47,4389.28,2091.47,4389.28Z" transform="translate(-2058.62 -4157.965)" fill="#5e5454" fill-rule="evenodd"/>
      <path id="Path_136" data-name="Path 136" d="M2286.786,4538.313c-2.852.457-3.992,1.939-4.334,4.106a8.927,8.927,0,0,1-1.255,2.966c-2.966.228-9.923.57-15.74.912l-.456,7.642a87.123,87.123,0,0,0,17.451-4.106,4.558,4.558,0,0,0,1.939-1.026c4.22-3.422,6.615-9.239,6.615-10.038S2289.751,4537.971,2286.786,4538.313Z" transform="translate(-2232.265 -4356.5)" fill="#fc9490" fill-rule="evenodd"/>
      <path id="Path_137" data-name="Path 137" d="M2136.425,4476c-.228,6.844-1.939,20.189-16.311,27.375H2120c3.878-13,8.783-29.77,10.95-40.377C2133.688,4466.992,2136.539,4472.239,2136.425,4476Z" transform="translate(-2103.803 -4289.97)" fill="#201e1e" fill-rule="evenodd"/>
      <path id="Path_138" data-name="Path 138" d="M2133.127,4314s-12.318.913-15.284,7.414c-2.966,6.616-3.878,28.629-.114,35.13,0,0,5.247,1.483,14.372-.228.114,0,.228-.114.342-.114,0,0,2.966-7.186.342-8.554,0,0-7.756.342-6.958-2.167C2126.626,4342.858,2133.127,4314,2133.127,4314Z" transform="translate(-2099.593 -4157.965)" fill="#5e5454" fill-rule="evenodd"/>
      <path id="Path_139" data-name="Path 139" d="M2805.212,4341.426a7.315,7.315,0,0,0-8.212,5.133l1.141,4.221a5.475,5.475,0,0,0,5.589-2.624c1.6-2.4,2.053-1.482,3.08-3.193C2808.292,4342.566,2806.011,4341.654,2805.212,4341.426Z" transform="translate(-2703.584 -4182.197)" fill="#fc9490" fill-rule="evenodd"/>
      <path id="Path_140" data-name="Path 140" d="M2667.562,4392.7c-.912.456-2.737,1.254-4.562,2.167a24.841,24.841,0,0,1,2.509,10.152,44.461,44.461,0,0,0,6.73-5.475,101.467,101.467,0,0,0,7.186-8.326L2678.17,4387S2670.414,4391.449,2667.562,4392.7Z" transform="translate(-2584.869 -4222.639)" fill="#fc9490" fill-rule="evenodd"/>
      <path id="Path_141" data-name="Path 141" d="M5658.743,4858.665s-4.676,1.14-7.642.227c-3.08-.912-8.212.685-9.011,1.711-.912,1.141-.57,1.6.913,1.939s6.729,2.624,10.265,1.255a26.971,26.971,0,0,1,7.871-1.255Z" transform="translate(-5223.716 -4640.466)" fill="#fc9490" fill-rule="evenodd"/>
      <path id="Path_142" data-name="Path 142" d="M5805.829,4458.417s-5.247,37.754-14.03,41.062c-4.334,1.711-23.5,5.475-29.2,5.817,0,0-1.369-1.14-1.027-5.7,0,0,20.075-7.3,22.926-11.406,4.221-5.931-2.623-24.295,2.624-29.883C5792.484,4452.714,5801.5,4450.318,5805.829,4458.417Z" transform="translate(-5329.968 -4281.281)" fill="#201e1e" fill-rule="evenodd"/>
      <path id="Path_143" data-name="Path 143" d="M5940.234,5307v-8.212h13a.639.639,0,0,0,.57-.685v-1.254a.639.639,0,0,0-.57-.685h-13V5249.4a2.339,2.339,0,0,0-2.4-2.4h-2.51a2.339,2.339,0,0,0-2.4,2.4v46.765h-13a.639.639,0,0,0-.571.685v1.254a.639.639,0,0,0,.571.685h13V5307c-9.353.684-16.881,4.106-18.934,8.44h45.282C5957.115,5311.1,5949.587,5307.68,5940.234,5307Z" transform="translate(-5465.058 -4984.546)" fill="#5e5454" fill-rule="evenodd"/>
      <path id="Path_144" data-name="Path 144" d="M5588.786,5745.787s-.571,8.9-2.282,9.011H5567s0-2.624,3.194-3.194,8.44-2.737,10.379-6.958C5582.626,5740.2,5588.786,5745.787,5588.786,5745.787Z" transform="translate(-5157.637 -5423.908)" fill="#201e1e" fill-rule="evenodd"/>
      <path id="Path_145" data-name="Path 145" d="M5720.381,5023.862a86.466,86.466,0,0,1-5.247,7.414c-5.7,7.186-11.862,13.116-13,18.706a24.054,24.054,0,0,1-1.026,3.536,30.419,30.419,0,0,1-1.6,4.106,118.607,118.607,0,0,1-9.695,16.424c-6.273,9.354-12.09,17-12.09,17l-10.722-.456c.342-1.027,5.133-13.8,11.406-29.428,2.509-6.387,5.247-13.117,7.871-19.618.342-.913.684-1.711,1.026-2.624l2.4-5.816c5.817-14.714,10.494-26.349,10.494-26.349s23.611-8.9,26.12-3.08C5728.25,5008.35,5726.654,5013.026,5720.381,5023.862Z" transform="translate(-5246.231 -4767.226)" fill="#5e5454" fill-rule="evenodd"/>
      <path id="Path_146" data-name="Path 146" d="M5933.184,5545s7.413,4.9,6.729,6.388c-.114.228-4.22,7.642-4.22,7.642l-5.361,9.467a3.423,3.423,0,0,1-1.141-4.335c1.027-3.079,1.711-8.782-1.026-12.546C5925.314,5547.738,5933.184,5545,5933.184,5545Z" transform="translate(-5477.056 -5248.557)" fill="#201e1e" fill-rule="evenodd"/>
      <path id="Path_147" data-name="Path 147" d="M5630.547,5009s-29.656,18.478-32.963,30.8c-3.308,12.433,39.465,38.9,39.465,38.9s4.677-4.22,5.475-7.186c0,0-19.276-23.154-23.5-28.287-2.624-3.194,37.982-11.064,43-18.706,4.9-7.756,3.194-14.258,3.194-14.258Z" transform="translate(-5184.57 -4773.693)" fill="#5e5454" fill-rule="evenodd"/>
      <path id="Path_148" data-name="Path 148" d="M5889.848,5217h-60.68a2.166,2.166,0,0,0-2.168,2.168v12.09a2.165,2.165,0,0,0,2.168,2.167h60.68a2.165,2.165,0,0,0,2.167-2.167v-12.09A2.165,2.165,0,0,0,5889.848,5217Z" transform="translate(-5387.981 -4957.968)" fill="#201e1e" fill-rule="evenodd"/>
      <path id="Path_149" data-name="Path 149" d="M5972.563,4324.17a16.7,16.7,0,0,0-4.562,4.106c7.186,1.825,18.934-4.677,18.934-4.677a17.542,17.542,0,0,1-6.273-9.809,3.378,3.378,0,0,1-.229-1.141,29.026,29.026,0,0,1-.456-3.65l-3.193,2.966-5.475,4.791a43.343,43.343,0,0,0,.8,5.475A11.907,11.907,0,0,0,5972.563,4324.17Z" transform="translate(-5512.898 -4153.536)" fill="#fc9490" fill-rule="evenodd"/>
      <path id="Path_150" data-name="Path 150" d="M5915.721,4448.439c-1.026,13.573.685,34.446-.456,37.982-1.027,3.08-12.661,1.255-17.223.229a57.877,57.877,0,0,1-5.817-1.6c-5.817-1.825-12.2-4.334-12.889-6.272v-.229a.974.974,0,0,1,0-.8c.228-1.026,1.14-2.053,1.14-4.448.114-2.738.114-5.931.228-9.353a3.855,3.855,0,0,1,.115-1.141v-.342c.114-3.878.228-7.87.456-11.862.228-2.51.342-4.905.57-7.3a92.151,92.151,0,0,1,2.054-15.056,23.741,23.741,0,0,1,7.756-11.862l2.167-1.939a12.109,12.109,0,0,0,7.87-1.026c2.738-1.255,3.65-2.281,4.22-1.939C5912.3,4416.5,5916.976,4431.672,5915.721,4448.439Z" transform="translate(-5434.271 -4244.271)" fill="#5e5454" fill-rule="evenodd"/>
      <path id="Path_151" data-name="Path 151" d="M5893,4803.736c-5.932-1.825-12.205-4.448-12.889-6.387-.114,0-.114-.115-.114-.229v-.8c.228-.913,1.141-2.053,1.255-4.448.114-2.738.114-5.817.114-9.239a4.671,4.671,0,0,0,.114-1.255v-.342L5903.5,4771S5904.865,4788.794,5893,4803.736Z" transform="translate(-5434.936 -4562.839)" fill="#5e5454" fill-rule="evenodd"/>
      <path id="Path_152" data-name="Path 152" d="M5997,4339.791a43.288,43.288,0,0,0,.8,5.475c5.36-1.711,7.756-6.5,8.554-8.441.229-.57.343-.912.343-.912a4.781,4.781,0,0,0-.57-.228c-.8-.114-2.167-.456-3.649-.685Z" transform="translate(-5538.591 -4176.57)" fill="#ff8585" fill-rule="evenodd"/>
      <path id="Path_153" data-name="Path 153" d="M5957,4226.912s11.634,1.254,12.432-5.932c.685-7.3,2.624-11.976-4.791-13.117s-9.125,1.483-9.923,3.878C5953.918,4214.022,5954.032,4226.34,5957,4226.912Z" transform="translate(-5500.756 -4063.691)" fill="#fc9490" fill-rule="evenodd"/>
      <path id="Path_154" data-name="Path 154" d="M5965.153,4185.478s-.685-9.581-11.292-10.607c-7.3-.685-3.194-6.958-2.4-7.871,0,0,5.475.684,11.178,1.711C5974.621,4170.65,5966.294,4184,5965.153,4185.478Z" transform="translate(-5496.593 -4027.732)" fill="#201e1e" fill-rule="evenodd"/>
      <path id="Path_155" data-name="Path 155" d="M5517.7,4734.69l-1.026.228L5508,4708.343l1.026-.343Z" transform="translate(-5105.366 -4507.025)" fill="#201e1e" fill-rule="evenodd"/>
      <path id="Path_156" data-name="Path 156" d="M5613.313,4924l-29.313.57v1.711l29.428-.57Z" transform="translate(-5172.697 -4698.388)" fill="#201e1e" fill-rule="evenodd"/>
      <path id="Path_157" data-name="Path 157" d="M5683.8,4910s-4.562,1.711-7.642,1.141-8.1,1.483-8.783,2.624-.342,1.6,1.141,1.825,6.958,1.825,10.266.114a29.731,29.731,0,0,1,7.756-2.167Z" transform="translate(-5246.263 -4685.985)" fill="#fc9490" fill-rule="evenodd"/>
      <path id="Path_158" data-name="Path 158" d="M5822.579,4478.545s-1.141,37.982-9.467,42.316c-4.221,2.167-22.812,7.985-28.4,9.011,0,0-1.482-.913-1.711-5.589,0,0,19.162-9.467,21.558-13.8,3.536-6.388-5.247-23.953-.57-30.113S5817.219,4470.9,5822.579,4478.545Z" transform="translate(-5349 -4299.813)" fill="#201e1e" fill-rule="evenodd"/>
      <path id="Path_159" data-name="Path 159" d="M2624.422,5848.141H2028.57a.539.539,0,0,1-.57-.571h0a.611.611,0,0,1,.57-.57h595.852a.611.611,0,0,1,.571.57h0A.539.539,0,0,1,2624.422,5848.141Z" transform="translate(-2022.297 -5516.11)" fill="#6e0808" fill-rule="evenodd"/>
    </g>
  </g>
</svg>
